<svg xmlns="http://www.w3.org/2000/svg" viewBox="0 0 144.15 414"><defs><style>.cls-1{fill:#8beabf;}.cls-2{fill:none;stroke:#fff;stroke-miterlimit:10;stroke-width:3px;}</style></defs><title>arbre droite </title><g id="Calque_2" data-name="Calque 2"><g id="Calque_3" data-name="Calque 3"><path class="cls-1" d="M56.26.69c28.09-4.83,60.35,16.54,72.89,40.11s-5.66,28.28,0,83.64a541.11,541.11,0,0,0,11.12,67.75c2.16,8.73,3.24,11.57,3.62,17.6.56,9.06,2.3,36.93-22.44,58.89-5.23,4.63-25.72,22.82-51.3,21.33-36.28-2.1-63.41-42.65-67.32-75.95-.89-7.6.08-12.49.91-19.55C12.67,118.4-11.21,94.75,7.15,51,12.1,39.25,26.13,5.87,56.26.69Z"/><line class="cls-2" x1="69.15" y1="68" x2="69.15" y2="414"/><polyline class="cls-2" points="49.65 96.5 69.07 130.89 93.65 96.5"/><polyline class="cls-2" points="48.65 173.5 68.07 213.32 101.65 173.5"/></g></g></svg>