<svg xmlns="http://www.w3.org/2000/svg" viewBox="0 0 144.26 374.78"><defs><style>.cls-1{fill:#8beabf;}.cls-2{fill:none;stroke:#fff;stroke-miterlimit:10;stroke-width:3px;}</style></defs><title>arbre gauche</title><g id="Calque_2" data-name="Calque 2"><g id="Calque_3" data-name="Calque 3"><path class="cls-1" d="M67.17.78c-5.28.85-22.21,3.61-32,17-7.86,10.74-3.55,18-10,39-4.57,14.89-7.93,15.12-14,30-5.94,14.54-18.11,44.35-6,70,2.75,5.81,10,18.36,29,28,1.51,2.93,12,22.54,34,27,19,3.83,33.8-6.16,41-11,21.75-14.66,28.54-37.66,31-46,.74-2.53,1.67-18.56,3.5-50.5,1.08-18.94.72-25.78-1.5-34.5a81.06,81.06,0,0,0-15-30c-.94-3.79-5.68-21.17-23-32C88.11-2.27,72,0,67.17.78Z"/><line class="cls-2" x1="72.67" y1="66.78" x2="72.67" y2="374.78"/><polyline class="cls-2" points="49.67 98.28 72.67 118.66 93.67 93.28"/><polyline class="cls-2" points="39.67 145.28 72.67 170.76 104.67 136.28"/></g></g></svg>