<svg xmlns="http://www.w3.org/2000/svg" viewBox="0 0 439.73 286.1"><defs><style>.cls-1{fill:#efc68f;}.cls-2{fill:#5765b2;}.cls-3{fill:#fff;}.cls-4{fill:#ffd985;}.cls-5{fill:#a5a5a5;}.cls-6,.cls-7,.cls-8,.cls-9{fill:none;stroke-miterlimit:10;}.cls-6,.cls-8{stroke:#a5a5a5;}.cls-6,.cls-7{stroke-width:0.75px;}.cls-7{stroke:#5765b2;}.cls-8{stroke-width:0.2px;}.cls-9{stroke:#fff;}</style></defs><title>Fichier 1</title><g id="Calque_2" data-name="Calque 2"><g id="socle"><path class="cls-1" d="M4.76,189.07c-20.69-49.68,30.5-119.73,68-150,11.39-9.19,46.84-37.36,96-39,17.64-.59,48.8,1.75,125,53,79,53.1,155.47,104.55,145,152-5.9,26.76-37.76,44.5-62,58-14,7.78-39.16,22.2-73,23-27.43.64-48-7.82-56-11C126.79,226.81,28.56,246.19,4.76,189.07Z"/></g><g id="audiovisuel"><rect class="cls-2" x="133.68" y="31.34" width="79.04" height="132.86"/><rect class="cls-2" x="133.68" y="24.07" width="39.52" height="10.91"/><path class="cls-3" d="M144.47,107.21v.67c0,.82.24,1.27.88,1.27s.83-.62.83-1.33c0-1.18-.25-1.54-1.43-2.47s-1.8-1.52-1.8-3.14c0-1.44.43-2.89,2.41-2.89s2.33,1.44,2.33,2.62v.59H146V102c0-.76-.12-1.22-.68-1.22s-.7.47-.7,1.2.15,1.15,1.11,1.85c1.64,1.21,2.14,1.91,2.14,3.74,0,1.55-.54,3-2.58,3s-2.52-1.28-2.52-2.72v-.65Z"/><path class="cls-3" d="M150.85,101.06h-1.76V99.49h5.21v1.57h-1.76v9.36h-1.69Z"/><path class="cls-3" d="M157.47,99.49v8.32c0,.8.27,1.25.92,1.25s.88-.51.88-1.25V99.49H161v8.28c0,1.73-.78,2.81-2.6,2.81s-2.57-.94-2.57-2.8V99.49Z"/><path class="cls-3" d="M163.2,99.49h2.34c2.32,0,2.88,1.2,2.88,3.23v4.19c0,1.68-.29,3.51-2.89,3.51H163.2Zm1.69,9.5h.54c1.1,0,1.27-.71,1.27-1.85v-4.55c0-1-.17-1.65-1.28-1.65h-.53Z"/><path class="cls-3" d="M172.18,99.49v10.93H170.5V99.49Z"/><path class="cls-3" d="M179.57,102.39v5.11c0,2.09-.89,3.08-2.74,3.08s-2.57-1-2.57-3v-5.15c0-2.09,1.05-3,2.68-3S179.57,100.29,179.57,102.39Zm-3.6-.16v5.5c0,.91.33,1.33.94,1.33s1-.4,1-1.36v-5.48c0-.87-.27-1.35-1-1.35S176,101.3,176,102.23Z"/><path class="cls-3" d="M190.17,106.36c0-1.86,0-4.17.06-5.43h0c-.25,1.9-.86,6.33-1.33,9.49h-1.59c-.35-2.84-1-7.5-1.21-9.5h0c0,1.27.09,3.75.09,5.63v3.87H184.6V99.49h2.51c.43,2.78.87,5.89,1,7.43h0c.18-1.55.77-4.81,1.21-7.43h2.42v10.93h-1.6Z"/><path class="cls-3" d="M199.65,106.36c0-1.86,0-4.17,0-5.43h0c-.25,1.9-.85,6.33-1.33,9.49h-1.59c-.35-2.84-1-7.5-1.21-9.5h0c0,1.27.08,3.75.08,5.63v3.87h-1.53V99.49h2.52c.42,2.78.86,5.89,1,7.43h0c.18-1.55.77-4.81,1.21-7.43h2.43v10.93h-1.6Z"/><path class="cls-3" d="M205.23,99.49v10.93h-1.68V99.49Z"/><path class="cls-4" d="M172.27,118.86h3.46a15.6,15.6,0,0,1,15.6,15.6V164.2a0,0,0,0,1,0,0H156.67a0,0,0,0,1,0,0V134.46a15.6,15.6,0,0,1,15.6-15.6Z"/><rect class="cls-3" x="152.83" y="63.65" width="43.64" height="25.99"/><rect class="cls-5" x="152.83" y="63.65" width="43.64" height="3.57"/><line class="cls-6" x1="165.33" y1="76.15" x2="192.5" y2="76.15"/><line class="cls-6" x1="165.33" y1="79.12" x2="192.5" y2="79.12"/><line class="cls-6" x1="165.33" y1="82.1" x2="192.5" y2="82.1"/><rect class="cls-5" x="152.34" y="57.17" width="43.64" height="3.57" transform="translate(-6.59 25.26) rotate(-8.14)"/><polygon class="cls-3" points="159.89 62.8 156.04 59.74 160.75 59.07 164.6 62.13 159.89 62.8"/><polygon class="cls-3" points="159.94 63.65 156.56 67.22 161.32 67.22 164.69 63.65 159.94 63.65"/><polygon class="cls-3" points="169.69 61.4 165.84 58.34 170.56 57.67 174.4 60.72 169.69 61.4"/><polygon class="cls-3" points="169.84 63.65 166.46 67.22 171.22 67.22 174.6 63.65 169.84 63.65"/><polygon class="cls-3" points="179.23 60.03 175.39 56.98 180.1 56.3 183.94 59.36 179.23 60.03"/><polygon class="cls-3" points="179.48 63.65 176.11 67.22 180.87 67.22 184.24 63.65 179.48 63.65"/><polygon class="cls-3" points="188.85 58.66 185.01 55.6 189.72 54.92 193.57 57.98 188.85 58.66"/><polygon class="cls-3" points="189.2 63.65 185.82 67.22 190.59 67.22 193.96 63.65 189.2 63.65"/><line class="cls-7" x1="173.92" y1="118.86" x2="173.92" y2="164.2"/><path class="cls-3" d="M292.47,165.22h-51.9V76.61c-.7-13.45,11.07-24.77,25.32-25.08,14.7-.32,27.29,11.19,26.58,25.08Z"/><path class="cls-5" d="M235.68,87.63h4.88a0,0,0,0,1,0,0V104.7a0,0,0,0,1,0,0H227.28a0,0,0,0,1,0,0V96A8.41,8.41,0,0,1,235.68,87.63Z"/><path class="cls-3" d="M237,85.66h.65a0,0,0,0,1,0,0V158.4a0,0,0,0,1,0,0H227.28a0,0,0,0,1,0,0v-63A9.77,9.77,0,0,1,237,85.66Z"/><path class="cls-2" d="M254.94,54.05a19.82,19.82,0,0,1,4.22-1.62,29.38,29.38,0,0,1,7.34-.9,29.74,29.74,0,0,1,6.89.78,20.75,20.75,0,0,1,4.89,1.8Z"/><rect class="cls-2" x="227.28" y="114.4" width="2.33" height="34.84"/><path class="cls-2" d="M286.37,60.15h-39.7a24.22,24.22,0,0,1,3.06-2.87A23.41,23.41,0,0,1,253,55.13h27.12a24.34,24.34,0,0,1,6.29,5Z"/><rect class="cls-3" x="265.71" y="54.77" width="1.98" height="6.11"/><rect class="cls-2" x="260.19" y="61.41" width="12.93" height="10.42" rx="1.72"/><circle class="cls-5" cx="266.65" cy="66.53" r="3.5"/><rect class="cls-2" x="240.57" y="81.53" width="51.91" height="1.26"/><path class="cls-2" d="M247.57,80.27h-7v-1.8c0-2.62,0-3.25,0-4.31a23.93,23.93,0,0,1,.36-3.23h6.64Z"/><rect class="cls-2" x="248.65" y="70.93" width="2.87" height="9.34"/><rect class="cls-2" x="252.96" y="70.93" width="5.93" height="9.34"/><rect class="cls-4" x="254.58" y="72.37" width="2.69" height="2.69"/><rect class="cls-4" x="254.58" y="76.14" width="2.69" height="2.69"/><rect class="cls-2" x="260.68" y="74.34" width="14.91" height="5.93"/><circle class="cls-4" cx="272.86" cy="77.34" r="1.74"/><circle class="cls-5" cx="280.18" cy="77.34" r="1.74"/><rect class="cls-2" x="284.93" y="70.93" width="2.87" height="9.34"/><path class="cls-2" d="M292.47,80.27h-3.41V70.93h3.05a21.85,21.85,0,0,1,.36,3c0,.85,0,1.39,0,2.52Z"/><rect class="cls-2" x="251.21" y="85.48" width="30.71" height="2.51"/><rect class="cls-2" x="251.34" y="90.87" width="30.71" height="2.51"/><rect class="cls-2" x="251.34" y="96.26" width="30.71" height="2.51"/><rect class="cls-2" x="251.34" y="89.97" width="7" height="4.31"/><rect class="cls-2" x="275.05" y="95.36" width="7" height="4.31"/><path class="cls-2" d="M262.31,136.85h8.32a3.74,3.74,0,0,1,3.74,3.74v24.64a0,0,0,0,1,0,0H258.57a0,0,0,0,1,0,0V140.59A3.74,3.74,0,0,1,262.31,136.85Z"/><rect class="cls-3" x="260.82" y="138.82" width="11.32" height="11.32" rx="2"/><rect class="cls-3" x="260.82" y="151.93" width="11.32" height="11.32" rx="1.99"/><rect class="cls-8" x="242.54" y="92.79" width="6.11" height="56.94"/><rect class="cls-8" x="267.96" y="101.55" width="14.91" height="33.41" rx="6.99"/><rect class="cls-5" x="280.62" y="145.83" width="1.7" height="18.14"/><rect class="cls-5" x="284.74" y="145.83" width="1.7" height="18.14"/><rect class="cls-5" x="288.62" y="145.83" width="1.7" height="18.14"/><rect class="cls-8" x="251.43" y="109.03" width="6.11" height="25.93"/><rect class="cls-2" x="258.8" y="111.5" width="1.44" height="21.03" rx="0.67"/><rect class="cls-2" x="261.22" y="111.43" width="1.44" height="21.03" rx="0.67"/><rect class="cls-2" x="263.92" y="111.43" width="1.44" height="21.03" rx="0.67"/><rect class="cls-5" x="292.47" y="87.45" width="13.29" height="17.06" transform="translate(598.24 191.97) rotate(-180)"/><rect class="cls-3" x="295.35" y="85.48" width="10.42" height="72.74" transform="translate(601.11 243.7) rotate(-180)"/><rect class="cls-2" x="303.43" y="114.22" width="2.33" height="34.84" transform="translate(609.19 263.27) rotate(-180)"/><line class="cls-9" x1="98.76" y1="165.07" x2="320.76" y2="165.07"/></g></g></svg>