<svg xmlns="http://www.w3.org/2000/svg" width="439.728" height="286.1" viewBox="0 0 439.728 286.1"><g transform="translate(-789.236 -131.935)"><path d="M794,321c-20.7-49.678,30.5-119.728,68-150,11.384-9.189,46.836-37.359,96-39,17.639-.589,48.8,1.754,125,53,78.97,53.107,155.47,104.552,145,152-5.905,26.76-37.764,44.5-62,58-13.983,7.787-39.166,22.2-73,23-27.435.648-48.012-7.814-56-11C916.022,358.749,817.8,378.129,794,321Z" fill="#efc68f"/><path d="M938.535,185.846,989.827,155l21.88,6.078,17.017,24.311,26.742,12.155,26.742,32.82,14.587,40.113h-95.758l-64.694-65.64Z" fill="#af9b6e"/><line x2="220.013" transform="translate(892.583 269.869)" fill="none" stroke="#282828" stroke-miterlimit="10" stroke-width="0.75"/><path d="M835.453,282.632l28.207-57.683,50-48.069,29.489,10.682L961.1,213.2l29.489,11.75,32.054,57.683Z" fill="#c9b181"/><path d="M913.664,176.88l24.361,18.159q7.692,11.751,15.386,23.5l39.746,7.477L961.1,213.2q-8.975-12.819-17.95-25.637Z" fill="#a89371"/><path d="M989.827,155l15.8,15.8,17.018,27.958,27.957,3.646,19.449,13.371-14.587-18.233-26.742-12.155-17.017-24.311Z" fill="#9b8965"/><circle cx="38.661" cy="38.661" r="38.661" transform="translate(1089.38 240.097)" fill="none" stroke="#474747" stroke-miterlimit="10" stroke-width="2"/><ellipse cx="27.615" cy="38.661" rx="27.615" ry="38.661" transform="translate(1086.794 255.181) rotate(-24.709)" fill="none" stroke="#474747" stroke-miterlimit="10" stroke-width="2"/><ellipse cx="13.255" cy="38.661" rx="13.255" ry="38.661" transform="translate(1099.838 249.178) rotate(-24.709)" fill="none" stroke="#474747" stroke-miterlimit="10" stroke-width="2"/><line x2="36.477" y2="79.273" transform="translate(1107.724 234.606)" fill="none" stroke="#474747" stroke-miterlimit="10" stroke-width="2"/><path d="M1094.581,258.893a29.39,29.39,0,0,0,38.673-19.012" fill="none" stroke="#474747" stroke-miterlimit="10" stroke-width="2"/><path d="M1088.716,278.636c2.453.3,17.93,1.984,36.78-7.2,18.314-8.92,26.007-21.369,27.276-23.494" fill="none" stroke="#474747" stroke-miterlimit="10" stroke-width="2"/><path d="M1096.439,300.715c2.571.249,18.8,1.582,38.84-8.145,19.466-9.45,27.85-22.216,29.233-24.4" fill="none" stroke="#474747" stroke-miterlimit="10" stroke-width="2"/><path d="M1106.109,310.308a66.981,66.981,0,0,0,60.574-28" fill="none" stroke="#474747" stroke-miterlimit="10" stroke-width="2"/><line x2="6.464" y2="14.048" transform="translate(1144.201 313.879)" fill="none" stroke="#474747" stroke-miterlimit="10" stroke-width="4"/><rect width="69.589" height="11.046" transform="translate(1115.94 326.003)" fill="#474747"/><path d="M1103.709,291.659c-.1,2.433-1.818,4.536-5.454,5.021-4.577.611-6.969-2.1-7.237-5.656-.259-3.433,1.523-6.592,5.673-7.153,3.453-.465,5.433,1.159,6.129,3.162-1.2.225-1.8.329-3.007.521a2.5,2.5,0,0,0-2.915-1.45c-2.239.3-2.9,2.293-2.667,4.524.216,2.057,1.235,4.168,3.867,3.814a2.555,2.555,0,0,0,2.454-2.235C1101.819,292.005,1102.45,291.9,1103.709,291.659Z" fill="#fff"/><path d="M1107.019,282.137c1.16,4.88,1.739,7.321,2.9,12.2-1.277.3-1.918.446-3.2.715-1.025-4.911-1.536-7.366-2.56-12.277C1105.3,282.537,1105.877,282.409,1107.019,282.137Z" fill="#fff"/><path d="M1113.17,293.516c-1.3-4.845-1.946-7.268-3.245-12.113,1.395-.374,2.089-.573,3.469-.993,2.308,2.221,6.673,5.916,7.711,7l.036-.013a55.008,55.008,0,0,1-2-5.158c-.473-1.333-.71-2-1.184-3.332.995-.353,1.49-.536,2.476-.914,1.8,4.683,2.694,7.025,4.491,11.708-1.427.548-2.146.81-3.591,1.312a105.9,105.9,0,0,1-8.093-7.447l-.036.011c.387.977,1.171,3.5,1.806,5.654.411,1.393.616,2.089,1.027,3.481C1114.9,293.046,1114.321,293.207,1113.17,293.516Z" fill="#fff"/><path d="M1134.583,279.51c-2.3,1.194-3.467,1.758-5.831,2.818l1.225,2.732c2.679-1.2,4-1.844,6.6-3.212.3.9.454,1.35.752,2.253a98.762,98.762,0,0,1-9.3,4.356c-1.929-4.631-2.892-6.946-4.821-11.577A88.021,88.021,0,0,0,1131.5,273l1.086,2.078c-2.294,1.2-3.458,1.762-5.818,2.82l1.027,2.292c2.315-1.037,3.458-1.59,5.71-2.759Z" fill="#fff"/><path d="M1147.158,272.8c-1.2-1.737-2.535-3.736-3.3-4.946l-.077.053a98.478,98.478,0,0,1,3.249,10.525c-.931.606-1.4.9-2.345,1.487-2.682-2.416-6.1-5.691-7.885-7.616l-.079.046c.839,1.218,2.175,3.39,3.26,5.247.89,1.524,1.335,2.287,2.226,3.811-1.027.6-1.545.894-2.586,1.467-2.42-4.393-3.63-6.59-6.051-10.983,1.524-.84,2.279-1.276,3.768-2.178,2.442,2.241,5.467,5.03,6.836,6.424l.019-.012c-.633-1.631-1.767-5.926-2.68-9.077,1.4-.937,2.084-1.42,3.443-2.414l7.4,10.122c-1.022.748-1.538,1.114-2.578,1.833C1148.729,275.07,1148.206,274.312,1147.158,272.8Z" fill="#fff"/><path d="M1155.5,268.835c.378,1.118.563,1.68.924,2.807-1.011.808-1.521,1.2-2.551,1.984-1.481-5.169-2.315-7.709-4.162-12.685,1.145-.943,1.71-1.424,2.825-2.409,4.681,2.559,7.091,3.753,12.038,5.953-1,.966-1.512,1.441-2.541,2.375-1.076-.516-1.611-.779-2.674-1.313C1157.84,266.9,1157.068,267.556,1155.5,268.835Zm1.8-4.6c-2.38-1.3-3.913-2.2-4.906-2.872l-.015.013c.571,1.172,1.332,3.074,2.143,5.225C1155.644,265.679,1156.2,265.206,1157.3,264.24Z" fill="#fff"/><text transform="translate(868.765 214.78)" fill="#fff" font-size="18.233" font-family="SegoeUI, Segoe UI"><tspan x="0" y="20">STUDIO MMI</tspan></text><line x2="200.565" transform="translate(829.375 282.024)" fill="none" stroke="#282828" stroke-miterlimit="10" stroke-width="0.75"/><line x2="110.614" transform="translate(1091.932 336.724)" fill="none" stroke="#282828" stroke-miterlimit="10" stroke-width="0.75"/></g><text transform="translate(46.876 169.711)" fill="#515151" font-size="32" font-family="DIN-Medium, DIN" font-weight="500"><tspan x="0" y="32">AUDIOVISUEL</tspan></text></svg>