<svg xmlns="http://www.w3.org/2000/svg" width="312.093" height="359.361" viewBox="0 0 312.093 359.361"><path d="M1049,654c-5.036-32.761,23.658-50.234,71-112,68.476-89.339,63.071-124.053,103-135,40.732-11.167,88.042,13.528,113,45,44.537,56.162,16.932,132.694,6,163-25.9,71.8-95.07,156.809-164,148-31.188-3.986-57.4-26.55-80-46C1072.1,694.705,1052.689,678,1049,654Z" transform="translate(-1048.43 -404.27)" fill="#fcbdb6"/><g transform="translate(-1048.43 -404.27)"><line x2="211.593" transform="translate(1114.164 604.735)" fill="none" stroke="#282828" stroke-miterlimit="10" stroke-width="0.75"/><rect width="54.304" height="121.798" transform="translate(1251.06 482.362)" fill="#ffd985"/><rect width="57.385" height="3.44" transform="translate(1249.615 479)" fill="#ffd985"/><rect width="18.589" height="1.252" transform="translate(1258.004 491.355)" fill="#fff"/><rect width="18.589" height="1.252" transform="translate(1258.004 500.43)" fill="#fff"/><rect width="18.589" height="1.252" transform="translate(1258.004 509.504)" fill="#fff"/><rect width="18.589" height="1.252" transform="translate(1258.004 518.579)" fill="#fff"/><rect width="18.589" height="1.252" transform="translate(1258.004 527.654)" fill="#fff"/><rect width="18.589" height="1.252" transform="translate(1258.004 536.728)" fill="#fff"/><rect width="18.589" height="1.252" transform="translate(1258.004 545.803)" fill="#fff"/><rect width="18.589" height="1.252" transform="translate(1258.004 563.952)" fill="#fff"/><rect width="18.589" height="1.252" transform="translate(1258.004 554.877)" fill="#fff"/><rect width="18.589" height="1.252" transform="translate(1258.004 573.027)" fill="#fff"/><rect width="18.589" height="1.252" transform="translate(1258.004 582.101)" fill="#fff"/><rect width="18.589" height="1.252" transform="translate(1257.946 591.176)" fill="#fff"/><rect width="18.589" height="1.252" transform="translate(1280.459 491.419)" fill="#fff"/><rect width="18.589" height="1.252" transform="translate(1280.459 500.493)" fill="#fff"/><rect width="18.589" height="1.252" transform="translate(1280.459 509.568)" fill="#fff"/><rect width="18.589" height="1.252" transform="translate(1280.459 518.643)" fill="#fff"/><rect width="18.589" height="1.252" transform="translate(1280.459 527.717)" fill="#fff"/><rect width="18.589" height="1.252" transform="translate(1280.459 536.792)" fill="#fff"/><rect width="18.589" height="1.252" transform="translate(1280.459 545.867)" fill="#fff"/><rect width="18.589" height="1.252" transform="translate(1280.459 564.016)" fill="#fff"/><rect width="18.589" height="1.252" transform="translate(1280.459 554.941)" fill="#fff"/><rect width="18.589" height="1.252" transform="translate(1280.459 573.09)" fill="#fff"/><rect width="18.589" height="1.252" transform="translate(1280.459 582.165)" fill="#fff"/><rect width="18.589" height="1.252" transform="translate(1280.4 591.24)" fill="#fff"/><rect width="47.761" height="147.674" transform="translate(1198.24 456.455)" fill="#5765b2"/><line y1="29.505" transform="translate(1222.745 419.105)" fill="none" stroke="#5765b2" stroke-miterlimit="10" stroke-width="3"/><ellipse cx="5.027" cy="5.591" rx="5.027" ry="5.591" transform="translate(1217.615 436.387)" fill="#5765b2"/><rect width="29.237" height="16.327" transform="translate(1208.13 441.978)" fill="#5765b2"/><line y2="127.883" transform="translate(1207.037 467.112)" fill="none" stroke="#efc581" stroke-miterlimit="10" stroke-width="2"/><line y2="127.883" transform="translate(1215.207 467.112)" fill="none" stroke="#efc581" stroke-miterlimit="10" stroke-width="2"/><line y2="127.883" transform="translate(1222.748 467.112)" fill="none" stroke="#efc581" stroke-miterlimit="10" stroke-width="2"/><line y2="127.883" transform="translate(1230.289 467.112)" fill="none" stroke="#efc581" stroke-miterlimit="10" stroke-width="2"/><line y2="127.883" transform="translate(1237.83 467.112)" fill="none" stroke="#efc581" stroke-miterlimit="10" stroke-width="2"/><rect width="56.658" height="117.381" transform="translate(1138.342 487)" fill="#a5a5a5"/><rect width="48.367" height="100.203" transform="translate(1142.487 491.57)" fill="#fff"/><path d="M1160.15,529.795l7.341-11.193,8.81,14.39,8.81,4.8-4.4,11.193,5.873,7.995-8.81,1.6-4.4,11.193-11.746-6.4-10.278,4.8,1.468-12.792-7.341-6.4,4.4-7.995L1144,526.6Z" fill="#ffd985"/><path d="M1160.746,532.843l5.676-8.654,6.811,11.126,6.812,3.709-3.406,8.654,4.541,6.181-6.812,1.236-3.406,8.654-9.082-4.945-7.947,3.709,1.135-9.89-5.676-4.945,3.406-6.181-4.541-11.126Z" fill="#ffd00b"/><path d="M1177.035,524.622l1.382-4.515,8.292-3.01-5.528,4.515Z" fill="#ffd985"/><path d="M1154.924,521.612l-2.764-9.029,4.146,4.515Z" fill="#ffd985"/><path d="M1182.563,566.759l2.764,10.534-4.146-3.01,1.382-1.5Z" fill="#ffd985"/><path d="M1157.688,572.778l2.764,6.019v-6.019l-2.764-4.515Z" fill="#ffd985"/><path d="M1145.381,562.244l2.634-6.02v4.515Z" fill="#ffd985"/></g><text transform="translate(14.998 220.713)" fill="#515151" font-size="32" font-family="DIN-Medium, DIN" font-weight="500"><tspan x="0" y="32">COMMUNICATION</tspan></text></svg>