<svg xmlns="http://www.w3.org/2000/svg" width="332.09" height="379.36" viewBox="0 0 332.09 379.36">
  <g id="Composant_59_1" data-name="Composant 59 – 1" style="isolation: isolate">
    <path id="Tracé_16" data-name="Tracé 16" d="M1049.036,667.9c-5.359-34.584,25.174-53.03,75.549-118.233,72.864-94.311,67.112-130.957,109.6-142.513,43.342-11.788,93.683,14.281,120.24,47.5,47.391,59.287,18.017,140.078,6.385,172.071-27.557,75.792-101.161,165.535-174.508,156.236-33.186-4.208-61.081-28.028-85.126-48.56C1073.615,710.868,1052.962,693.233,1049.036,667.9Z" transform="translate(-1048.43 -404.27)" fill="#fcbdb6"/>
    <g id="COM" transform="translate(85.732 14.835)">
      <line id="Ligne_6" data-name="Ligne 6" x2="211.593" transform="translate(0 185.63)" fill="none" stroke="#282828" stroke-miterlimit="10" stroke-width="0.75"/>
      <g id="Groupe_3" data-name="Groupe 3" transform="translate(135.451 59.895)">
        <rect id="Rectangle_4" data-name="Rectangle 4" width="54.304" height="121.798" transform="translate(1.444 3.362)" fill="#ffd985"/>
        <rect id="Rectangle_5" data-name="Rectangle 5" width="57.385" height="3.44" fill="#ffd985"/>
        <rect id="Rectangle_6" data-name="Rectangle 6" width="18.589" height="1.252" transform="translate(8.389 12.355)" fill="#fff"/>
        <rect id="Rectangle_7" data-name="Rectangle 7" width="18.589" height="1.252" transform="translate(8.389 21.43)" fill="#fff"/>
        <rect id="Rectangle_8" data-name="Rectangle 8" width="18.589" height="1.252" transform="translate(8.389 30.504)" fill="#fff"/>
        <rect id="Rectangle_9" data-name="Rectangle 9" width="18.589" height="1.252" transform="translate(8.389 39.579)" fill="#fff"/>
        <rect id="Rectangle_10" data-name="Rectangle 10" width="18.589" height="1.252" transform="translate(8.389 48.654)" fill="#fff"/>
        <rect id="Rectangle_11" data-name="Rectangle 11" width="18.589" height="1.252" transform="translate(8.389 57.728)" fill="#fff"/>
        <rect id="Rectangle_12" data-name="Rectangle 12" width="18.589" height="1.252" transform="translate(8.389 66.803)" fill="#fff"/>
        <rect id="Rectangle_13" data-name="Rectangle 13" width="18.589" height="1.252" transform="translate(8.389 84.952)" fill="#fff"/>
        <rect id="Rectangle_14" data-name="Rectangle 14" width="18.589" height="1.252" transform="translate(8.389 75.877)" fill="#fff"/>
        <rect id="Rectangle_15" data-name="Rectangle 15" width="18.589" height="1.252" transform="translate(8.389 94.027)" fill="#fff"/>
        <rect id="Rectangle_16" data-name="Rectangle 16" width="18.589" height="1.252" transform="translate(8.389 103.101)" fill="#fff"/>
        <rect id="Rectangle_17" data-name="Rectangle 17" width="18.589" height="1.252" transform="translate(8.33 112.176)" fill="#fff"/>
        <rect id="Rectangle_18" data-name="Rectangle 18" width="18.589" height="1.252" transform="translate(30.843 12.419)" fill="#fff"/>
        <rect id="Rectangle_19" data-name="Rectangle 19" width="18.589" height="1.252" transform="translate(30.843 21.493)" fill="#fff"/>
        <rect id="Rectangle_20" data-name="Rectangle 20" width="18.589" height="1.252" transform="translate(30.843 30.568)" fill="#fff"/>
        <rect id="Rectangle_21" data-name="Rectangle 21" width="18.589" height="1.252" transform="translate(30.843 39.643)" fill="#fff"/>
        <rect id="Rectangle_22" data-name="Rectangle 22" width="18.589" height="1.252" transform="translate(30.843 48.717)" fill="#fff"/>
        <rect id="Rectangle_23" data-name="Rectangle 23" width="18.589" height="1.252" transform="translate(30.843 57.792)" fill="#fff"/>
        <rect id="Rectangle_24" data-name="Rectangle 24" width="18.589" height="1.252" transform="translate(30.843 66.867)" fill="#fff"/>
        <rect id="Rectangle_25" data-name="Rectangle 25" width="18.589" height="1.252" transform="translate(30.843 85.016)" fill="#fff"/>
        <rect id="Rectangle_26" data-name="Rectangle 26" width="18.589" height="1.252" transform="translate(30.843 75.941)" fill="#fff"/>
        <rect id="Rectangle_27" data-name="Rectangle 27" width="18.589" height="1.252" transform="translate(30.843 94.09)" fill="#fff"/>
        <rect id="Rectangle_28" data-name="Rectangle 28" width="18.589" height="1.252" transform="translate(30.843 103.165)" fill="#fff"/>
        <rect id="Rectangle_29" data-name="Rectangle 29" width="18.589" height="1.252" transform="translate(30.785 112.24)" fill="#fff"/>
      </g>
      <g id="Groupe_4" data-name="Groupe 4" transform="translate(84.075)">
        <rect id="Rectangle_30" data-name="Rectangle 30" width="47.761" height="147.674" transform="translate(0 37.35)" fill="#5765b2"/>
        <line id="Ligne_7" data-name="Ligne 7" y1="29.505" transform="translate(24.505)" fill="none" stroke="#5765b2" stroke-miterlimit="10" stroke-width="3"/>
        <ellipse id="Ellipse_4" data-name="Ellipse 4" cx="5.027" cy="5.591" rx="5.027" ry="5.591" transform="translate(19.375 17.282)" fill="#5765b2"/>
        <rect id="Rectangle_31" data-name="Rectangle 31" width="29.237" height="16.327" transform="translate(9.89 22.873)" fill="#5765b2"/>
        <line id="Ligne_8" data-name="Ligne 8" y2="127.883" transform="translate(8.798 48.007)" fill="none" stroke="#efc581" stroke-miterlimit="10" stroke-width="2"/>
        <line id="Ligne_9" data-name="Ligne 9" y2="127.883" transform="translate(16.968 48.007)" fill="none" stroke="#efc581" stroke-miterlimit="10" stroke-width="2"/>
        <line id="Ligne_10" data-name="Ligne 10" y2="127.883" transform="translate(24.509 48.007)" fill="none" stroke="#efc581" stroke-miterlimit="10" stroke-width="2"/>
        <line id="Ligne_11" data-name="Ligne 11" y2="127.883" transform="translate(32.05 48.007)" fill="none" stroke="#efc581" stroke-miterlimit="10" stroke-width="2"/>
        <line id="Ligne_12" data-name="Ligne 12" y2="127.883" transform="translate(39.591 48.007)" fill="none" stroke="#efc581" stroke-miterlimit="10" stroke-width="2"/>
      </g>
      <g id="Groupe_5" data-name="Groupe 5" transform="translate(24.177 67.895)">
        <rect id="Rectangle_32" data-name="Rectangle 32" width="56.658" height="117.381" fill="#a5a5a5"/>
        <rect id="Rectangle_33" data-name="Rectangle 33" width="48.367" height="100.203" transform="translate(4.146 4.57)" fill="#fff"/>
        <path id="Tracé_37" data-name="Tracé 37" d="M1160.15,529.795l7.341-11.193,8.81,14.39,8.81,4.8-4.4,11.193,5.873,7.995-8.81,1.6-4.4,11.193-11.746-6.4-10.278,4.8,1.468-12.792-7.341-6.4,4.4-7.995L1144,526.6Z" transform="translate(-1138.342 -487)" fill="#ffd985"/>
        <path id="Tracé_38" data-name="Tracé 38" d="M1160.746,532.843l5.676-8.654,6.811,11.126,6.812,3.709-3.406,8.654,4.541,6.181-6.812,1.236-3.406,8.654-9.082-4.945-7.947,3.709,1.135-9.89-5.676-4.945,3.406-6.181-4.541-11.126Z" transform="translate(-1138.342 -487)" fill="#ffd00b"/>
        <path id="Tracé_39" data-name="Tracé 39" d="M1177.035,524.622l1.382-4.515,8.292-3.01-5.528,4.515Z" transform="translate(-1138.342 -487)" fill="#ffd985"/>
        <path id="Tracé_40" data-name="Tracé 40" d="M1154.924,521.612l-2.764-9.029,4.146,4.515Z" transform="translate(-1138.342 -487)" fill="#ffd985"/>
        <path id="Tracé_41" data-name="Tracé 41" d="M1182.563,566.759l2.764,10.534-4.146-3.01,1.382-1.5Z" transform="translate(-1138.342 -487)" fill="#ffd985"/>
        <path id="Tracé_42" data-name="Tracé 42" d="M1157.688,572.778l2.764,6.019v-6.019l-2.764-4.515Z" transform="translate(-1138.342 -487)" fill="#ffd985"/>
        <path id="Tracé_43" data-name="Tracé 43" d="M1145.381,562.244l2.634-6.02v4.515Z" transform="translate(-1138.342 -487)" fill="#ffd985"/>
      </g>
    </g>
    <text id="COMMUNICATION" transform="translate(14.998 235.096)" fill="#fff" font-size="32" font-family="DIN-Medium, DIN" font-weight="500"><tspan x="0" y="32">COMMUNICATION</tspan></text>
  </g>
</svg>
