<svg xmlns="http://www.w3.org/2000/svg" viewBox="0 0 491.43 277.19"><defs><style>.cls-1{fill:#9ad5bf;}.cls-2{fill:#a5a5a5;}.cls-3,.cls-9{fill:#ffd985;}.cls-4,.cls-5{fill:#5765b2;}.cls-4,.cls-6,.cls-7{stroke:#ffd985;}.cls-10,.cls-11,.cls-12,.cls-4,.cls-6,.cls-7,.cls-9{stroke-miterlimit:10;}.cls-10,.cls-11,.cls-12,.cls-6,.cls-7{fill:none;}.cls-11,.cls-7{stroke-width:0.5px;}.cls-8{fill:#fff;}.cls-10,.cls-11,.cls-9{stroke:#a5a5a5;}.cls-12{stroke:#fff;}</style></defs><title>Fichier 3</title><g id="Calque_2" data-name="Calque 2"><g id="socle"><path class="cls-1" d="M8.93,103c7-10.83,16.75-16.69,102-41,34.16-9.74,51.24-14.61,59-16,41.47-7.43,54.61-1.1,117,0,85,1.49,108.8-9.39,136,12,8.86,7,15.9,18,30,40,26.37,41.2,41.51,64.85,38,84-3.36,18.36-25.09,35.44-152,64-141.45,31.83-219.29,48.19-280,5-40.27-28.65-52-75-52-75C2.22,159.47-6.93,127.41,8.93,103Z"/></g><g id="Design"><rect class="cls-2" x="195.6" y="4.42" width="79.72" height="175.67"/><rect class="cls-3" x="192.93" width="85.05" height="4.42"/><rect class="cls-4" x="205.61" y="15.19" width="22.68" height="50.27"/><rect class="cls-4" x="242.63" y="15.47" width="22.68" height="50.27"/><rect class="cls-4" x="205.77" y="80.52" width="22.68" height="50.27"/><rect class="cls-4" x="242.8" y="80.24" width="22.68" height="50.27"/><rect class="cls-5" x="224.28" y="145.01" width="22.35" height="35.36"/><line class="cls-6" x1="216.95" y1="80.38" x2="216.95" y2="130.79"/><line class="cls-6" x1="217.27" y1="15" x2="217.27" y2="65.41"/><line class="cls-6" x1="254.29" y1="15.27" x2="254.29" y2="65.68"/><line class="cls-6" x1="254.29" y1="80.18" x2="254.29" y2="130.59"/><line class="cls-6" x1="205.61" y1="40.6" x2="228.29" y2="40.6"/><line class="cls-6" x1="242.63" y1="40.6" x2="265.31" y2="40.6"/><line class="cls-6" x1="205.94" y1="105.79" x2="228.62" y2="105.79"/><line class="cls-6" x1="242.96" y1="105.79" x2="265.64" y2="105.79"/><rect class="cls-3" x="205.61" y="61.87" width="22.68" height="3.59"/><rect class="cls-3" x="242.63" y="62.15" width="22.68" height="3.59"/><rect class="cls-3" x="205.61" y="127.06" width="22.68" height="3.59"/><rect class="cls-3" x="242.63" y="127.06" width="22.68" height="3.59"/><rect class="cls-7" x="226.79" y="146.53" width="17.34" height="14.36"/><rect class="cls-7" x="226.95" y="163.52" width="17.34" height="14.36"/><path class="cls-8" d="M360.66,181H288.9v-135a36.64,36.64,0,0,1,71.76,0Z"/><rect class="cls-9" x="299.7" y="44.16" width="49.88" height="22.46"/><rect class="cls-9" x="299.7" y="76.84" width="49.88" height="22.46"/><line class="cls-10" x1="299.98" y1="53.09" x2="349.87" y2="53.09"/><line class="cls-10" x1="315.28" y1="44.48" x2="315.28" y2="66.94"/><line class="cls-10" x1="335.08" y1="44.48" x2="335.08" y2="66.94"/><line class="cls-10" x1="299.69" y1="85.47" x2="349.57" y2="85.47"/><line class="cls-10" x1="314.99" y1="76.86" x2="314.99" y2="99.32"/><line class="cls-10" x1="334.79" y1="76.86" x2="334.79" y2="99.32"/><rect class="cls-9" x="299.98" y="109.53" width="49.88" height="22.46"/><line class="cls-10" x1="299.98" y1="118.16" x2="349.86" y2="118.16"/><line class="cls-10" x1="315.28" y1="109.56" x2="315.28" y2="132.02"/><line class="cls-10" x1="335.08" y1="109.56" x2="335.08" y2="132.02"/><path class="cls-3" d="M335.68,181.37H314.17V145.53c1.42-3.6,5.58-6.12,10.3-6.26,5-.16,9.68,2.41,11.21,6.26Z"/><path class="cls-11" d="M333.83,179.52H316v-33a9.25,9.25,0,0,1,8.53-5.77c4.17-.15,8,2.22,9.28,5.77Z"/><rect class="cls-2" x="300.57" y="156.76" width="10.21" height="5.54"/><rect class="cls-8" x="97.73" y="35.01" width="83.06" height="145.36"/><rect class="cls-5" x="160.03" y="61.1" width="13.04" height="24.23"/><rect class="cls-3" x="108.65" y="104.76" width="13.04" height="24.23"/><polygon class="cls-3" points="89.21 66.16 89.21 95.71 127.28 95.71 150.98 108.75 180.79 108.75 180.79 77.87 150.98 77.87 130.21 66.16 89.21 66.16"/><polygon class="cls-5" points="189.31 108.75 189.31 138.31 153.91 138.31 127.55 151.88 97.73 151.88 97.73 121 127.55 121 150.98 108.75 189.31 108.75"/><rect class="cls-3" x="156.57" y="148.42" width="8.25" height="31.68"/><rect class="cls-5" x="164.82" y="148.42" width="8.25" height="31.68"/><line class="cls-12" x1="74.93" y1="180.5" x2="390.93" y2="181.5"/></g></g></svg>