<svg xmlns="http://www.w3.org/2000/svg" width="491.432" height="288.189" viewBox="0 0 491.432 288.189"><path d="M605,729c7.039-10.834,16.751-16.691,102-41,34.156-9.74,51.234-14.609,59-16,41.467-7.426,54.6-1.1,117,0,84.972,1.495,108.8-9.394,136,12,8.855,6.965,15.9,17.976,30,40,26.373,41.2,41.508,64.848,38,84-3.363,18.36-25.087,35.439-152,64-141.453,31.833-219.29,48.19-280,5-40.268-28.648-52-75-52-75C598.285,785.467,589.142,753.407,605,729Z" transform="translate(-596.069 -615)" fill="#9ad5bf"/><g transform="translate(-596.069 -615)"><rect width="79.717" height="187.36" transform="translate(795.668 619.713)" fill="#a5a5a5"/><rect width="85.053" height="4.713" transform="translate(793 615)" fill="#ffd985"/><rect width="22.681" height="53.616" transform="translate(805.675 631.203)" fill="#5765b2" stroke="#ffd985" stroke-miterlimit="10" stroke-width="1"/><rect width="22.681" height="53.616" transform="translate(842.698 631.497)" fill="#5765b2" stroke="#ffd985" stroke-miterlimit="10" stroke-width="1"/><rect width="22.681" height="53.616" transform="translate(805.841 700.873)" fill="#5765b2" stroke="#ffd985" stroke-miterlimit="10" stroke-width="1"/><rect width="22.681" height="53.616" transform="translate(842.865 700.579)" fill="#5765b2" stroke="#ffd985" stroke-miterlimit="10" stroke-width="1"/><rect width="22.347" height="37.708" transform="translate(824.353 769.661)" fill="#5765b2"/><line y2="53.763" transform="translate(817.015 700.726)" fill="none" stroke="#ffd985" stroke-miterlimit="10" stroke-width="1"/><line y2="53.763" transform="translate(817.337 630.995)" fill="none" stroke="#ffd985" stroke-miterlimit="10" stroke-width="1"/><line y2="53.763" transform="translate(854.36 631.289)" fill="none" stroke="#ffd985" stroke-miterlimit="10" stroke-width="1"/><line y2="53.763" transform="translate(854.36 700.518)" fill="none" stroke="#ffd985" stroke-miterlimit="10" stroke-width="1"/><line x2="22.681" transform="translate(805.675 658.305)" fill="none" stroke="#ffd985" stroke-miterlimit="10" stroke-width="1"/><line x2="22.681" transform="translate(842.698 658.305)" fill="none" stroke="#ffd985" stroke-miterlimit="10" stroke-width="1"/><line x2="22.681" transform="translate(806.008 727.829)" fill="none" stroke="#ffd985" stroke-miterlimit="10" stroke-width="1"/><line x2="22.681" transform="translate(843.031 727.829)" fill="none" stroke="#ffd985" stroke-miterlimit="10" stroke-width="1"/><rect width="22.681" height="3.83" transform="translate(805.675 680.989)" fill="#ffd985"/><rect width="22.681" height="3.83" transform="translate(842.698 681.283)" fill="#ffd985"/><rect width="22.681" height="3.83" transform="translate(805.675 750.512)" fill="#ffd985"/><rect width="22.681" height="3.83" transform="translate(842.698 750.512)" fill="#ffd985"/><rect width="17.344" height="15.319" transform="translate(826.854 771.281)" fill="none" stroke="#ffd985" stroke-miterlimit="10" stroke-width="0.5"/><rect width="17.344" height="15.319" transform="translate(827.021 789.398)" fill="none" stroke="#ffd985" stroke-miterlimit="10" stroke-width="0.5"/><path d="M956.732,806.974H884.973V671.915a36.646,36.646,0,0,1,71.759,0Z" fill="#fff"/><rect width="49.881" height="22.461" transform="translate(895.766 670.165)" fill="#ffd985" stroke="#a5a5a5" stroke-miterlimit="10" stroke-width="1"/><rect width="49.881" height="22.461" transform="translate(895.766 702.836)" fill="#ffd985" stroke="#a5a5a5" stroke-miterlimit="10" stroke-width="1"/><line x2="49.881" transform="translate(896.054 679.087)" fill="none" stroke="#a5a5a5" stroke-miterlimit="10" stroke-width="1"/><line y2="22.461" transform="translate(911.352 670.482)" fill="none" stroke="#a5a5a5" stroke-miterlimit="10" stroke-width="1"/><line y2="22.461" transform="translate(931.154 670.482)" fill="none" stroke="#a5a5a5" stroke-miterlimit="10" stroke-width="1"/><line x2="49.881" transform="translate(895.762 711.466)" fill="none" stroke="#a5a5a5" stroke-miterlimit="10" stroke-width="1"/><line y2="22.461" transform="translate(911.061 702.861)" fill="none" stroke="#a5a5a5" stroke-miterlimit="10" stroke-width="1"/><line y2="22.461" transform="translate(930.862 702.861)" fill="none" stroke="#a5a5a5" stroke-miterlimit="10" stroke-width="1"/><rect width="49.881" height="22.461" transform="translate(896.054 735.532)" fill="#ffd985" stroke="#a5a5a5" stroke-miterlimit="10" stroke-width="1"/><line x2="49.881" transform="translate(896.05 744.163)" fill="none" stroke="#a5a5a5" stroke-miterlimit="10" stroke-width="1"/><line y2="22.461" transform="translate(911.348 735.558)" fill="none" stroke="#a5a5a5" stroke-miterlimit="10" stroke-width="1"/><line y2="22.461" transform="translate(931.15 735.558)" fill="none" stroke="#a5a5a5" stroke-miterlimit="10" stroke-width="1"/><path d="M931.747,807.368h-21.5V771.534c1.417-3.6,5.577-6.12,10.3-6.267,5.037-.157,9.68,2.416,11.205,6.267Z" fill="#ffd985"/><path d="M929.9,805.515h-17.8V772.5a9.252,9.252,0,0,1,8.527-5.774c4.17-.145,8.014,2.226,9.276,5.774Z" fill="none" stroke="#a5a5a5" stroke-miterlimit="10" stroke-width="0.5"/><rect width="10.21" height="5.542" transform="translate(896.642 782.762)" fill="#a5a5a5"/><rect width="83.061" height="145.358" transform="translate(693.802 661.011)" fill="#fff"/><rect width="13.045" height="24.226" transform="translate(756.098 687.101)" fill="#5765b2"/><rect width="13.045" height="24.226" transform="translate(704.717 730.761)" fill="#ffd985"/><path d="M685.282,692.159V721.71h38.07l23.694,13.045h29.817V703.873H747.046l-20.765-11.714Z" fill="#ffd985"/><path d="M785.382,734.754v29.551H749.974l-26.356,13.577H693.8V747h29.817l23.428-12.246Z" fill="#5765b2"/><rect width="8.253" height="31.68" transform="translate(752.637 774.422)" fill="#ffd985"/><rect width="8.253" height="31.68" transform="translate(760.89 774.422)" fill="#5765b2"/><line x2="316" y2="1" transform="translate(671 806.5)" fill="none" stroke="#000" stroke-miterlimit="10" stroke-width="1"/></g><text transform="translate(178.785 210.002)" fill="#515151" font-size="32" font-family="DIN-Medium, DIN" font-weight="500"><tspan x="0" y="32">DESIGN</tspan></text></svg>