<svg xmlns="http://www.w3.org/2000/svg" width="300.173" height="354" viewBox="0 0 300.173 354"><path d="M443.992,535.492c-8.769-67.081,34.548-115.411,43.713-125.636,28.2-31.463,60.525-43,125.178-66.076,61.263-21.866,101.291-36.152,121.2-19.543,18.212,15.191,4.19,43.377-3.974,107.954C714.633,554.64,748.729,582.4,717.2,622.972c-31.848,40.986-102.785,59.193-163.923,40.948C486.247,643.918,450.588,585.947,443.992,535.492Z" transform="translate(-442.827 -317)" fill="#96cfe2"/><g transform="translate(-442.827 -317)"><rect width="71.667" height="151.467" transform="translate(522.294 361.103)" fill="#a5a5a5"/><line y2="148.171" transform="translate(534.745 363.204)" fill="#3a3a3a" stroke="#fff" stroke-miterlimit="10" stroke-width="1"/><line y2="148.171" transform="translate(549.83 362.885)" fill="#3a3a3a" stroke="#fff" stroke-miterlimit="10" stroke-width="1"/><line y2="148.171" transform="translate(565.101 362.885)" fill="#3a3a3a" stroke="#fff" stroke-miterlimit="10" stroke-width="1"/><line y2="148.171" transform="translate(580.372 362.885)" fill="#3a3a3a" stroke="#fff" stroke-miterlimit="10" stroke-width="1"/><line x2="66.474" transform="translate(524.371 377.627)" fill="#3a3a3a" stroke="#fff" stroke-miterlimit="10" stroke-width="1"/><line x2="66.474" transform="translate(524.371 393.877)" fill="#3a3a3a" stroke="#fff" stroke-miterlimit="10" stroke-width="1"/><line x2="66.474" transform="translate(524.371 411.877)" fill="#3a3a3a" stroke="#fff" stroke-miterlimit="10" stroke-width="1"/><line x2="66.474" transform="translate(524.371 428.877)" fill="#3a3a3a" stroke="#fff" stroke-miterlimit="10" stroke-width="1"/><line x2="66.474" transform="translate(524.371 444.876)" fill="#3a3a3a" stroke="#fff" stroke-miterlimit="10" stroke-width="1"/><line x2="66.474" transform="translate(524.371 460.876)" fill="#3a3a3a" stroke="#fff" stroke-miterlimit="10" stroke-width="1"/><line x2="66.474" transform="translate(524.371 476.876)" fill="#3a3a3a" stroke="#fff" stroke-miterlimit="10" stroke-width="1"/><line x2="66.474" transform="translate(524.371 492.876)" fill="#3a3a3a" stroke="#fff" stroke-miterlimit="10" stroke-width="1"/><rect width="78.428" height="180.91" transform="translate(600.722 332.04)" fill="#fff"/><line y2="145.461" transform="translate(612.011 345.486)" fill="none" stroke="#ffd039" stroke-miterlimit="10" stroke-width="1"/><line y2="145.461" transform="translate(622.611 345.486)" fill="none" stroke="#ffd039" stroke-miterlimit="10" stroke-width="1"/><line y2="145.461" transform="translate(634.307 345.486)" fill="none" stroke="#ffd039" stroke-miterlimit="10" stroke-width="1"/><line y2="145.461" transform="translate(645.272 345.486)" fill="none" stroke="#ffd039" stroke-miterlimit="10" stroke-width="1"/><line y2="145.461" transform="translate(656.538 345.486)" fill="none" stroke="#ffd039" stroke-miterlimit="10" stroke-width="1"/><line y2="145.461" transform="translate(667.267 345.486)" fill="none" stroke="#ffd039" stroke-miterlimit="10" stroke-width="1"/><rect width="31.983" height="4.997" transform="translate(689.027 405.172)" fill="#3f3f3f"/><path d="M717.221,424.162H693.558a4.773,4.773,0,0,1-4.389-3.012l-4.547-10.98h41.711l-4.748,11.039A4.764,4.764,0,0,1,717.221,424.162Z" fill="#3f3f3f"/><path d="M722.578,417.828l3.237,6.468v11.629" fill="none" stroke="#3f3f3f" stroke-miterlimit="10" stroke-width="0.5"/><path d="M688.427,417.892l-3.2,6.293v11.74" fill="none" stroke="#3f3f3f" stroke-miterlimit="10" stroke-width="0.5"/><path d="M675.381,420.164V409.67H734.5v10.494" fill="none" stroke="#3f3f3f" stroke-miterlimit="10" stroke-width="0.75"/><line x2="9.995" transform="translate(671.037 407.441)" fill="none" stroke="#3f3f3f" stroke-miterlimit="10" stroke-width="0.5"/><line x2="9.995" transform="translate(730.005 407.441)" fill="none" stroke="#3f3f3f" stroke-miterlimit="10" stroke-width="0.5"/><path d="M674.139,405.892a1.915,1.915,0,0,1,3.831,0" fill="#3f3f3f"/><path d="M733.01,405.85a1.915,1.915,0,0,1,3.831,0" fill="#3f3f3f"/><path d="M568.269,335.279c.1-.4,1.508-6.451-2.7-10.817a11.522,11.522,0,0,0-16.227,0c-4.179,4.383-2.669,10.447-2.57,10.817l10.683,18.931Z" fill="#ffd985"/><circle cx="4.057" cy="4.057" r="4.057" transform="translate(553.395 328.518)" fill="#fff"/><line x2="266.386" transform="translate(447.922 512.561)" fill="none" stroke="#282828" stroke-miterlimit="10" stroke-width="0.75"/><line y2="7.366" transform="translate(488.176 447.166)" fill="none" stroke="#ffe161" stroke-miterlimit="10" stroke-width="2"/><path d="M491.6,451.769h-6.749a4.957,4.957,0,0,1-4.957-4.957v-3.5a8.374,8.374,0,0,1,8.286-8.454h0a8.374,8.374,0,0,1,8.286,8.454v3.5A4.918,4.918,0,0,1,491.6,451.769Z" fill="#5765b2"/><path d="M497.548,457.828c1.184,1.908,2.728,4.553,4.358,7.844,3,6.063,3.556,8.794,4.718,8.836,1.3.05,3.1-3.326,5.441-16.68" fill="none" stroke="#ffe161" stroke-miterlimit="10" stroke-width="2"/><path d="M479.274,459.427a19.2,19.2,0,0,0-4.057,6.918c-1.4,4.361-.555,7.549-.3,13.851a84.624,84.624,0,0,1-.369,11.815" fill="none" stroke="#ffe161" stroke-miterlimit="10" stroke-width="2"/><line y2="29.462" transform="translate(482.652 483.073)" fill="none" stroke="#ffe161" stroke-miterlimit="10" stroke-width="2"/><line y2="29.462" transform="translate(494.621 483.073)" fill="none" stroke="#ffe161" stroke-miterlimit="10" stroke-width="2"/><path d="M492.89,484.915h-8.507a7.255,7.255,0,0,1-7.255-7.255V461.787a7.255,7.255,0,0,1,7.255-7.255h8.507a7.255,7.255,0,0,1,7.255,7.255V477.66A7.255,7.255,0,0,1,492.89,484.915Z" fill="#5765b2"/><path d="M492.78,508.853h3.464a12.75,12.75,0,0,0,3.175.952c2.243.366,3.437-.062,4.286.725a2.853,2.853,0,0,1,.688,2.393l-11.613-.464v-3.606Z" fill="#5765b2"/><path d="M484.493,508.853h-3.464a12.75,12.75,0,0,1-3.175.952c-2.243.366-3.437-.062-4.286.725a2.853,2.853,0,0,0-.688,2.393l11.613-.464v-3.606Z" fill="#5765b2"/><circle cx="1.163" cy="1.163" r="1.163" transform="translate(483.993 442.17)"/><circle cx="1.163" cy="1.163" r="1.163" transform="translate(491.298 442.17)"/><path d="M510.3,451.013c-.532,2.957.837,5.617,2.39,5.844s3.368-2.014,3.312-5.085" fill="none" stroke="#5765b2" stroke-miterlimit="10" stroke-width="3"/><path d="M477.121,496.486c.468-2.971-.957-5.588-2.518-5.773s-3.326,2.1-3.2,5.17" fill="none" stroke="#5765b2" stroke-miterlimit="10" stroke-width="3"/><circle cx="1.163" cy="1.163" r="1.163" transform="translate(480.553 456.871)" fill="#ffe161"/><circle cx="1.163" cy="1.163" r="1.163" transform="translate(483.993 456.871)" fill="#ffe161"/></g><text transform="translate(13.929 213.675)" fill="#515151" font-size="32" font-family="DIN-Medium, DIN" font-weight="500"><tspan x="0" y="32">DEVELOPPEMENT</tspan></text></svg>