<svg xmlns="http://www.w3.org/2000/svg" viewBox="0 0 300.17 354"><defs><style>.cls-1{fill:#96cfe2;}.cls-2{fill:#a5a5a5;}.cls-3{fill:#3a3a3a;}.cls-3,.cls-6{stroke:#fff;}.cls-3,.cls-5,.cls-6,.cls-7,.cls-9{stroke-miterlimit:10;}.cls-4{fill:#fff;}.cls-5,.cls-6,.cls-7,.cls-9{fill:none;}.cls-5{stroke:#ffd039;}.cls-7{stroke:#ffe161;stroke-width:2px;}.cls-8{fill:#5765b2;}.cls-9{stroke:#5765b2;stroke-width:3px;}.cls-10{fill:#ffe161;}</style></defs><title>Fichier 2</title><g id="Calque_2" data-name="Calque 2"><g id="socle"><path class="cls-1" d="M1.17,218.49C-7.6,151.41,35.71,103.08,44.88,92.86c28.2-31.47,60.52-43,125.18-66.08C231.32,4.91,271.35-9.37,291.26,7.24c18.21,15.19,4.19,43.37-4,108C271.81,237.64,305.9,265.39,274.37,306c-31.85,41-102.79,59.19-163.92,40.95C43.42,326.92,7.76,269,1.17,218.49Z"/></g><g id="Dev"><rect class="cls-2" x="79.47" y="44.1" width="71.67" height="151.47"/><line class="cls-3" x1="91.92" y1="46.2" x2="91.92" y2="194.38"/><line class="cls-3" x1="107" y1="45.89" x2="107" y2="194.06"/><line class="cls-3" x1="122.27" y1="45.89" x2="122.27" y2="194.06"/><line class="cls-3" x1="137.54" y1="45.89" x2="137.54" y2="194.06"/><line class="cls-3" x1="81.54" y1="60.63" x2="148.02" y2="60.63"/><line class="cls-3" x1="81.54" y1="76.88" x2="148.02" y2="76.88"/><line class="cls-3" x1="81.54" y1="94.88" x2="148.02" y2="94.88"/><line class="cls-3" x1="81.54" y1="111.88" x2="148.02" y2="111.88"/><line class="cls-3" x1="81.54" y1="127.88" x2="148.02" y2="127.88"/><line class="cls-3" x1="81.54" y1="143.88" x2="148.02" y2="143.88"/><line class="cls-3" x1="81.54" y1="159.88" x2="148.02" y2="159.88"/><line class="cls-3" x1="81.54" y1="175.88" x2="148.02" y2="175.88"/><rect class="cls-4" x="157.89" y="15.04" width="78.43" height="180.91"/><line class="cls-5" x1="169.18" y1="28.49" x2="169.18" y2="173.95"/><line class="cls-5" x1="179.78" y1="28.49" x2="179.78" y2="173.95"/><line class="cls-5" x1="191.48" y1="28.49" x2="191.48" y2="173.95"/><line class="cls-5" x1="202.44" y1="28.49" x2="202.44" y2="173.95"/><line class="cls-5" x1="213.71" y1="28.49" x2="213.71" y2="173.95"/><line class="cls-5" x1="224.44" y1="28.49" x2="224.44" y2="173.95"/><line class="cls-6" x1="5.09" y1="195.56" x2="271.48" y2="195.56"/><line class="cls-7" x1="45.35" y1="130.17" x2="45.35" y2="137.53"/><path class="cls-8" d="M48.77,134.77H42a5,5,0,0,1-5-5v-3.49a8.38,8.38,0,0,1,8.29-8.46h0a8.38,8.38,0,0,1,8.29,8.46v3.49A4.93,4.93,0,0,1,48.77,134.77Z"/><path class="cls-7" d="M54.72,140.83c1.18,1.91,2.73,4.55,4.36,7.84,3,6.07,3.55,8.8,4.72,8.84s3.09-3.33,5.44-16.68"/><path class="cls-7" d="M36.45,142.43a19.1,19.1,0,0,0-4.06,6.92c-1.41,4.36-.55,7.54-.3,13.85A85.72,85.72,0,0,1,31.72,175"/><line class="cls-7" x1="39.82" y1="166.07" x2="39.82" y2="195.54"/><line class="cls-7" x1="51.79" y1="166.07" x2="51.79" y2="195.54"/><path class="cls-8" d="M50.06,167.91h-8.5a7.25,7.25,0,0,1-7.26-7.25V144.79a7.26,7.26,0,0,1,7.26-7.26h8.5a7.26,7.26,0,0,1,7.26,7.26v15.87A7.25,7.25,0,0,1,50.06,167.91Z"/><path class="cls-8" d="M50,191.85h3.47a13,13,0,0,0,3.17,1c2.24.36,3.44-.07,4.29.72a2.86,2.86,0,0,1,.69,2.39L50,195.46v-3.61Z"/><path class="cls-8" d="M41.67,191.85H38.2a13,13,0,0,1-3.17,1c-2.25.36-3.44-.07-4.29.72a2.86,2.86,0,0,0-.69,2.39l11.62-.46v-3.61Z"/><circle cx="42.33" cy="126.33" r="1.16"/><circle cx="49.63" cy="126.33" r="1.16"/><path class="cls-9" d="M67.47,134c-.53,3,.84,5.62,2.39,5.85s3.37-2,3.31-5.09"/><path class="cls-9" d="M34.29,179.49c.47-3-.95-5.59-2.51-5.78s-3.33,2.1-3.21,5.17"/><circle class="cls-10" cx="38.89" cy="141.03" r="1.16"/><circle class="cls-10" cx="42.33" cy="141.03" r="1.16"/></g></g></svg>