<svg xmlns="http://www.w3.org/2000/svg" viewBox="0 0 166.34 387.97"><title>Fichier 10arbre gauche</title><g id="Calque_2" data-name="Calque 2"><g id="Calque_3" data-name="Calque 3"><path d="M89.25,14c-5.27.85-22.2,3.61-32,17-7.86,10.74-3.55,18-10,39-4.57,14.89-7.92,15.12-14,30-5.93,14.54-18.1,44.35-6,70,2.75,5.82,10,18.36,29,28,1.51,2.93,12,22.54,34,27,19,3.83,33.81-6.16,41-11,21.76-14.66,28.54-37.66,31-46,.75-2.53,1.68-18.56,3.5-50.5,1.09-18.94.72-25.78-1.5-34.5a80.91,80.91,0,0,0-15-30c-.94-3.79-5.68-21.17-23-32C110.19,10.92,94,13.19,89.25,14Z" style="fill:#8beabf"/><line x1="94.75" y1="79.97" x2="94.75" y2="387.97" style="fill:none;stroke:#fff;stroke-miterlimit:10;stroke-width:3px"/><polyline points="71.75 111.47 94.75 131.85 115.75 106.47" style="fill:none;stroke:#fff;stroke-miterlimit:10;stroke-width:3px"/><polyline points="61.75 158.47 94.75 183.95 126.75 149.47" style="fill:none;stroke:#fff;stroke-miterlimit:10;stroke-width:3px"/><path d="M86.25,1C69,5.56,46.38,14.74,36.25,35c-5.18,10.34-3.17,15.72-6,32-7,40.24-26.5,49.36-29,73-1.65,15.63,4,38.77,39,70" style="fill:none;stroke:#fff;stroke-miterlimit:10;stroke-width:2px"/></g></g></svg>