<svg xmlns="http://www.w3.org/2000/svg" viewBox="0 0 494.56 1243.51"><title>Fichier 1iles_figurine</title><g id="Calque_2" data-name="Calque 2"><g id="Calque_3" data-name="Calque 3"><path d="M153.41,279.86c-17.45-15.94-35-44.91-24-63.21,3.19-5.34,10.27-12.21,66.25-19.39,57.74-7.41,96.47-6,132.07-.3,35.18,5.67,42.05,11.53,45.26,16.89,10.58,17.64-8.61,46.15-24.76,61.24C301.21,319,200.86,323.19,153.41,279.86Z" style="fill:#96cfe2"/><path d="M160.08,232.6c-8.89-2.37-21.79-6.36-21.93-11.9-.08-3.39,4.64-6.17,8.15-7.95,24.5-12.43,56.64-11,56.64-11,45.79,2,36.77-5.5,88.88-3.15,18.2.82,65.8,3.21,67.64,14.95.38,2.37-1.1,5.34-1.57,6.29-3.22,6.48-10.24,9.47-16.32,11.21C324.2,236,236.81,253.07,160.08,232.6Z" style="fill:#79aab7"/></g><g id="Calque_1-2" data-name="Calque 1"><rect x="209.7" y="194.17" width="76.79" height="83.33" style="fill:#e0b59d"/><path d="M209.83,192.17c8.12,2.53,17.75,5.14,28.85,7.49a366.58,366.58,0,0,0,41,6.24,108.15,108.15,0,0,1-25.55,15.35c-16.86,7.43-33.77,10.9-44.43,12.59Q209.76,213,209.83,192.17Z" style="fill:#c19c8a"/><rect x="163.11" y="109.04" width="169.98" height="29.98" rx="12.24" style="fill:#e0b59d"/><path d="M248.45,216.54c-7.32-1.22-33-6.4-53.23-29.38C176.57,166,173.31,135,173.31,135V91.19c0-40.76,33.48-73.8,74.79-73.8h0c41.3,0,74.78,33,74.78,73.8V135s-3.28,31-21.9,52.18C281,209.86,255.83,215.23,248.45,216.54Z" style="fill:#e0b59d"/><circle cx="286.49" cy="107.94" r="8.23" style="fill:#191919"/><circle cx="213.55" cy="109.04" r="8.23" style="fill:#191919"/><rect x="268.21" y="82.39" width="38.76" height="8.04" rx="4.02" style="fill:#3a3a3a"/><rect x="190.5" y="82.39" width="38.76" height="8.04" rx="4.02" style="fill:#3a3a3a"/><path d="M248.05,114.7q2.58,6.9,5.15,13.78a4,4,0,0,1-1.79,4.91l-4.83,2.73" style="fill:none;stroke:#191919;stroke-miterlimit:10"/><path d="M218.11,157.65c1.38-3.07,7.36-2.3,30.31-2.42,25-.14,31.22-1.13,32.58,1.94,1.92,4.3-7.5,12.71-16.08,16.66-1.35.62-16.79,7.43-32,.08C224.9,170.06,216.18,162,218.11,157.65Z" style="fill:#fff"/><rect x="225.53" y="144.32" width="48.99" height="6.04" rx="3.02" style="fill:#3a3a3a"/><path d="M225.68,179.35c3-1.85,7.78,2.64,20.34,3.2,15.6.7,22.76-5.58,26.49-3.2,7.31,4.66-6.54,37.25-23.41,37.19S218.62,183.72,225.68,179.35Z" style="fill:#3a3a3a"/><path d="M173.45,109c1.85-9.83,6.44-25.84,19.15-39.28,27.46-29,80.65-33.19,109.59-5,14.73,14.35,19.14,33.16,20.6,44.26l1.58-53.78c-1.52-7.46-5.22-20-15.26-30.65-19-20.12-47-18.53-66.69-17.4-17.64,1-36.77,2.22-52.23,17.4C180.27,34.35,176.06,46.2,174.12,54Q173.79,81.53,173.45,109Z" style="fill:#3a3a3a"/><rect x="166.02" y="46.98" width="168.06" height="32.59" rx="5.09" style="fill:#4f4f4f"/><path d="M327.84,55.3H174c1-7.77,3.76-20.44,12.75-31.85C205.13.15,235.29.05,250.57,0s45.92-.14,64.51,23.45C324.05,34.83,326.85,47.46,327.84,55.3Z" style="fill:#4f4f4f"/><line x1="185.15" y1="44.04" x2="246.58" y2="44.04" style="fill:none;stroke:#999;stroke-linecap:round;stroke-miterlimit:10;opacity:0.33"/><line x1="171.1" y1="49.01" x2="171.1" y2="73.86" style="fill:none;stroke:#999;stroke-linecap:round;stroke-miterlimit:10;opacity:0.33"/><line x1="178.85" y1="50.01" x2="178.85" y2="74.86" style="fill:none;stroke:#999;stroke-linecap:round;stroke-miterlimit:10;opacity:0.33"/><line x1="186.61" y1="50.01" x2="186.61" y2="74.86" style="fill:none;stroke:#999;stroke-linecap:round;stroke-miterlimit:10;opacity:0.33"/><line x1="194.37" y1="50.01" x2="194.37" y2="74.86" style="fill:none;stroke:#999;stroke-linecap:round;stroke-miterlimit:10;opacity:0.33"/><line x1="202.12" y1="50.01" x2="202.12" y2="74.86" style="fill:none;stroke:#999;stroke-linecap:round;stroke-miterlimit:10;opacity:0.33"/><line x1="209.88" y1="50.01" x2="209.88" y2="74.86" style="fill:none;stroke:#999;stroke-linecap:round;stroke-miterlimit:10;opacity:0.33"/><line x1="217.63" y1="50.01" x2="217.63" y2="74.86" style="fill:none;stroke:#999;stroke-linecap:round;stroke-miterlimit:10;opacity:0.33"/><line x1="225.39" y1="50.01" x2="225.39" y2="74.86" style="fill:none;stroke:#999;stroke-linecap:round;stroke-miterlimit:10;opacity:0.33"/><line x1="233.14" y1="50.01" x2="233.14" y2="74.86" style="fill:none;stroke:#999;stroke-linecap:round;stroke-miterlimit:10;opacity:0.33"/><line x1="240.9" y1="50.01" x2="240.9" y2="74.86" style="fill:none;stroke:#999;stroke-linecap:round;stroke-miterlimit:10;opacity:0.33"/><line x1="248.66" y1="50.01" x2="248.66" y2="74.86" style="fill:none;stroke:#999;stroke-linecap:round;stroke-miterlimit:10;opacity:0.33"/><line x1="256.41" y1="50.01" x2="256.41" y2="74.86" style="fill:none;stroke:#999;stroke-linecap:round;stroke-miterlimit:10;opacity:0.33"/><line x1="264.17" y1="50.01" x2="264.17" y2="74.86" style="fill:none;stroke:#999;stroke-linecap:round;stroke-miterlimit:10;opacity:0.33"/><line x1="271.92" y1="50.01" x2="271.92" y2="74.86" style="fill:none;stroke:#999;stroke-linecap:round;stroke-miterlimit:10;opacity:0.33"/><line x1="279.68" y1="50.01" x2="279.68" y2="74.86" style="fill:none;stroke:#999;stroke-linecap:round;stroke-miterlimit:10;opacity:0.33"/><line x1="287.44" y1="50.01" x2="287.44" y2="74.86" style="fill:none;stroke:#999;stroke-linecap:round;stroke-miterlimit:10;opacity:0.33"/><line x1="295.19" y1="50.01" x2="295.19" y2="74.86" style="fill:none;stroke:#999;stroke-linecap:round;stroke-miterlimit:10;opacity:0.33"/><line x1="302.95" y1="50.01" x2="302.95" y2="74.86" style="fill:none;stroke:#999;stroke-linecap:round;stroke-miterlimit:10;opacity:0.33"/><line x1="310.7" y1="50.01" x2="310.7" y2="74.86" style="fill:none;stroke:#999;stroke-linecap:round;stroke-miterlimit:10;opacity:0.33"/><line x1="318.46" y1="50.01" x2="318.46" y2="74.86" style="fill:none;stroke:#999;stroke-linecap:round;stroke-miterlimit:10;opacity:0.33"/><line x1="326.22" y1="50.01" x2="326.22" y2="74.86" style="fill:none;stroke:#999;stroke-linecap:round;stroke-miterlimit:10;opacity:0.33"/><path d="M24.2,664.1c-9.8,4.31-10.42,22.72-11.67,59.56-1.18,34.7,3.15,44,9.21,49.74,6.74,6.4,17.68,10.51,22.73,6.85,3.59-2.59,2.05-8,2.67-31.79.37-14,1.07-18.9,3.17-19.42,1.94-.48,4.77,2.81,6.21,5.88,4.51,9.61-3.84,18.89.83,24.35,1.12,1.31,3.37,2.85,5.53,2.46,8.07-1.45,11-28.72,8.24-50.57-1.2-9.5-2-15.45-5.79-22.5C56.6,672.62,36.21,658.82,24.2,664.1Z" style="fill:#e0b59d"/><path d="M470.63,664.1c9.79,4.31,10.42,22.72,11.67,59.56,1.17,34.7-3.15,44-9.21,49.74-6.74,6.4-17.68,10.51-22.74,6.85-2.23-1.61-3.35-4.77-2.67-31.79.37-14.49.87-20.65-1.73-21.64-2.41-.92-7.08,2.72-9.09,7.28-4.28,9.71,5.37,19.45.61,25.17-1.15,1.39-3.4,2.84-5.52,2.46-8.07-1.45-11-28.72-8.24-50.57,1.2-9.5,1.94-15.45,5.78-22.5C438.22,672.62,458.61,658.82,470.63,664.1Z" style="fill:#e0b59d"/></g><g id="Calque_2-2" data-name="Calque 2"><path d="M382.05,468.88H117.19l.94-207.38L208,242.55c1.73,2.11,17,18.83,41.37,18.95A48.09,48.09,0,0,0,288,242.61l95,18.89Z" style="fill:#96cfe2"/><path d="M411.25,471.05H88V295.68c0-19.16,16.2-34.7,36.18-34.7,41.93,0,58.5,7.45,124,5.34,34.89-1.13,98.9-10.8,128.45-6.09,12.85,2,20,6.93,24.07,10.91a37.5,37.5,0,0,1,9,14.22,33.33,33.33,0,0,1,1.63,10.32Z" style="fill:#96cfe2"/><path d="M88.78,419.62H411.25a0,0,0,0,1,0,0V599.8a32.83,32.83,0,0,1-32.83,32.83H121.61A32.83,32.83,0,0,1,88.78,599.8V419.62A0,0,0,0,1,88.78,419.62Z" style="fill:#96cfe2"/><rect x="113.92" y="618.75" width="270.94" height="44.32" style="fill:#96cfe2"/><path d="M204.07,241.4c1-2.17,19.53,2.58,34.34,10.81,13.36,7.42,26.68,19.34,25.32,21.24C261.09,277.12,202.17,245.5,204.07,241.4Z" style="fill:#96cfe2"/><path d="M295.51,240c-1-2.17-19.54,2.58-34.35,10.81-13.35,7.42-26.67,19.33-25.31,21.23C238.49,275.72,297.41,244.09,295.51,240Z" style="fill:#96cfe2"/><path d="M92.68,277.54A327.79,327.79,0,0,0,44.8,354.48C29.1,389.9,24.16,417.76,16.2,478-7.34,656.24-2,674.93,11.87,686.92c18.66,16.12,50.76,18.34,71.06,5.33,30.82-19.76,29.22-71.36,23.4-183.11C101.7,420.12,96.93,342,92.68,277.54Z" style="fill:#96cfe2"/><polygon points="74.22 712.86 12 701.7 15.7 675.37 77.92 686.53 74.22 712.86" style="fill:#96cfe2"/><path d="M401.88,274.59a328.11,328.11,0,0,1,47.88,77c15.7,35.41,20.63,63.28,28.6,123.55C501.9,653.3,496.56,672,482.69,684c-18.66,16.12-50.77,18.35-71.07,5.34C380.81,669.55,382.4,618,388.22,506.2,392.86,417.18,397.63,339.08,401.88,274.59Z" style="fill:#96cfe2"/><polygon points="420.33 709.92 482.56 698.76 478.86 672.42 416.64 683.58 420.33 709.92" style="fill:#96cfe2"/></g><g id="Calque_4" data-name="Calque 4"><path d="M146.33,258.94a296,296,0,0,1,82.56,18.56" style="fill:none;stroke:#79aab7;stroke-miterlimit:10;stroke-width:2px"/><path d="M350.65,258.94a296.18,296.18,0,0,0-82.56,18.56" style="fill:none;stroke:#79aab7;stroke-miterlimit:10;stroke-width:2px"/><path d="M108.9,357.71A710.86,710.86,0,0,0,109.15,622a13.76,13.76,0,0,0,13.35,11.22l175.8,1.56" style="fill:none;stroke:#79aab7;stroke-miterlimit:10;stroke-width:2px"/><path d="M378.85,357.71A635,635,0,0,1,391,493.76,638.84,638.84,0,0,1,378.6,608.13" style="fill:none;stroke:#79aab7;stroke-miterlimit:10;stroke-width:2px"/><path d="M11.87,683.19a110,110,0,0,1,43.91,7.37" style="fill:none;stroke:#79aab7;stroke-miterlimit:10;stroke-width:2px"/><path d="M482.56,683.19a110,110,0,0,0-43.92,7.37" style="fill:none;stroke:#79aab7;stroke-miterlimit:10;stroke-width:2px"/></g><g id="Calque_5" data-name="Calque 5"><path d="M228.58,1165.27H141.53c-10.47-76.77-18.73-158.94-23.51-246-5-90.56-5.66-176.18-3.34-256.2h113.9Z" style="fill:#1c1c1c"/><path d="M312.47,724.1a223.86,223.86,0,0,0-62.82-11.24,229,229,0,0,0-69.23,8q-5.64-28.9-11.29-57.82H329.24Z" style="fill:#1c1c1c"/><path d="M270.21,1165.27h86.65c10.42-76.77,18.64-158.94,23.4-246,5-90.56,5.63-176.18,3.32-256.2H270.21Z" style="fill:#1c1c1c"/><path d="M159.58,1197.72h51.14A22.26,22.26,0,0,1,233,1220v12.51a0,0,0,0,1,0,0H137.31a0,0,0,0,1,0,0V1220A22.26,22.26,0,0,1,159.58,1197.72Z" style="fill:#444"/><rect x="158.16" y="1165.27" width="53.23" height="32.45" style="fill:#fff;stroke:#444;stroke-miterlimit:10"/><rect x="287.01" y="1165.27" width="53.23" height="32.45" style="fill:#fff;stroke:#444;stroke-miterlimit:10"/><path d="M288.06,1197.72h51.14A22.26,22.26,0,0,1,361.46,1220v12.51a0,0,0,0,1,0,0H265.79a0,0,0,0,1,0,0V1220A22.26,22.26,0,0,1,288.06,1197.72Z" style="fill:#444"/><rect x="137.81" y="1232.99" width="94.66" height="10.01" style="fill:#fff"/><path d="M232,1233.49v9H138.31v-9H232m1-1H137.31v11H233v-11Z" style="fill:#444"/><rect x="266.29" y="1232.99" width="94.66" height="10.01" style="fill:#fff"/><path d="M360.46,1233.49v9H266.79v-9h93.67m1-1H265.79v11h95.67v-11Z" style="fill:#444"/><rect x="311.4" y="364.32" width="43.37" height="14" rx="7" style="fill:#79aab7"/></g></g></svg>