<svg xmlns="http://www.w3.org/2000/svg" viewBox="0 0 686.29 1239.49"><title>Fichier 2Jean_figurine</title><g id="Calque_2" data-name="Calque 2"><g id="Calque_6" data-name="Calque 6"><path d="M153.41,275.84c-17.45-15.94-35-44.91-24-63.21,3.19-5.33,10.27-12.21,66.25-19.39,57.74-7.4,96.47-6,132.07-.29,35.18,5.67,42.05,11.53,45.26,16.88,10.58,17.64-8.61,46.15-24.76,61.24C301.21,315,200.86,319.17,153.41,275.84Z" style="fill:#fcbdb6"/><path d="M160.08,228.59c-8.89-2.38-21.79-6.36-21.93-11.91-.08-3.39,4.64-6.17,8.15-8,24.5-12.42,56.64-11,56.64-11,45.79,2,36.77-5.5,88.88-3.15,18.2.83,65.8,3.21,67.64,15,.38,2.38-1.1,5.34-1.57,6.29-3.22,6.48-10.24,9.47-16.32,11.22C324.2,232,236.81,249.06,160.08,228.59Z" style="fill:#d89a95"/></g><g id="Calque_2-2" data-name="Calque 2"><rect x="209.7" y="190.16" width="76.79" height="83.33" style="fill:#604940"/><path d="M209.83,191.94a298.24,298.24,0,0,0,28.85,8.25,337.91,337.91,0,0,0,41,6.87A107.25,107.25,0,0,1,254.13,224c-16.86,8.18-33.77,12-44.43,13.86Q209.76,214.89,209.83,191.94Z" style="fill:#443733"/><rect x="163.11" y="113.02" width="169.98" height="29.98" rx="12.24" style="fill:#604940"/><path d="M248.93,214.94c-21.37.25-41.55-9.47-53.71-23.79C178.57,171.53,173.31,139,173.31,139h0V95.17c0-40.76,33.48-73.8,74.79-73.8h0c41.3,0,74.78,33,74.78,73.8V139c-.23,6.3-1.86,31.34-21.9,52.19C296.13,196.18,277.84,214.6,248.93,214.94Z" style="fill:#604940"/><circle cx="286.49" cy="111.92" r="8.23" style="fill:#191919"/><circle cx="213.55" cy="113.02" r="8.23" style="fill:#191919"/><rect x="268.21" y="86.38" width="38.76" height="8.04" rx="4.02" style="fill:#303030"/><rect x="190.5" y="86.38" width="38.76" height="8.04" rx="4.02" style="fill:#303030"/><path d="M248.05,118.69q2.58,6.89,5.15,13.78a4,4,0,0,1-1.79,4.9l-4.83,2.73" style="fill:none;stroke:#191919;stroke-miterlimit:10"/><path d="M173.43,133.45C183,167,191.85,173.7,197.93,174c9.57.54,12-14.73,30-22.61,14-6.12,31.1-5,44,1,17.5,8.24,20.22,22.34,29,21.58,6.42-.56,14.38-8.91,22-41.1.45,7.45,1,31.67-15,54.46-6.71,9.56-25.16,31.45-55.5,33.4-29.53,1.9-49.79-16.43-55.5-22.09C171.06,173,173.06,138.44,173.43,133.45Z" style="fill:#303030"/><path d="M225.93,162.66c6.5.45,13.89.72,22,.64s15.52-.53,22-1.11c.64,7.86-9.23,14.57-21.5,14.74S225.71,170.58,225.93,162.66Z" style="fill:#f7f7f7"/><path d="M173.45,113l9.48-26.08c4.34-7.34,9.67-25.67,14-33l104-1c4.67,6.66,8.34,24.33,13,31q4.43,14.53,8.86,29.08l1.14-41.08c8.64-11.63,9.28-26.65,2-37-7.05-10-18.75-11.72-21-12-.65-2.09-4.59-14.09-17-20-16.51-7.87-32.29,2.51-33,3-2.77-1.27-18.84-8.32-37-1a47.4,47.4,0,0,0-24,22c-1.49.15-14.14,1.69-21,13a28.15,28.15,0,0,0,1,30Z" style="fill:#262626"/><path d="M24.2,660.09c-9.8,4.3-10.42,22.72-11.67,59.55-1.18,34.71,3.15,44,9.21,49.74,6.74,6.41,17.68,10.52,22.73,6.86,3.59-2.6,2.05-8,2.67-31.79.37-14,1.07-18.91,3.17-19.43,1.94-.47,4.77,2.82,6.21,5.88,4.51,9.62-3.84,18.9.83,24.36,1.12,1.31,3.37,2.84,5.53,2.45,8.07-1.45,11-28.72,8.24-50.56-1.2-9.51-2-15.45-5.79-22.5C56.6,668.6,36.21,654.8,24.2,660.09Z" style="fill:#604940"/><path d="M642.23,293.4a41.43,41.43,0,0,1,3.75-4.28c1.47-1.39,2.68-2.17,4.44-3.72a57.46,57.46,0,0,0,4.83-4.93c5-5.62,12.72-21.88,15.64-27.73,8.75-17.54,12.79-19.14,14.66-30A50.62,50.62,0,0,0,686,209.2a37.27,37.27,0,0,0-4.68-15.64c-1.7-2.89-4.77-8.1-11.13-10.88-1.52-.67-8.57-3.76-15.69-.53-4.38,2-6.6,5.37-13.13,16.32-11.8,19.78-14.09,24.72-16.57,24.38-5-.7-2.39-19.88-11.74-23.29-.8-.3-3.86-1.42-6.28.24-7.61,5.17,7.28,30-.6,49.35-.92,2.25-3.45,7.63-2.7,14.08a29.66,29.66,0,0,0,2.83,8.93c.63,1.42,1.27,2.66,1.88,3.75a55.92,55.92,0,0,0,4,6.2C617.26,288.56,636.56,299.44,642.23,293.4Z" style="fill:#604940"/></g><g id="Calque_1-2" data-name="Calque 1"><path d="M382.05,464.86H117.19l.94-207.37,89.85-19c1.73,2.11,17,18.83,41.37,19A48.06,48.06,0,0,0,288,238.6l95,18.89Z" style="fill:#fcbdb6"/><path d="M411.25,467H88V291.67C88,272.5,104.19,257,124.17,257c41.93,0,58.5,7.45,124,5.34,34.89-1.12,98.9-10.8,128.45-6.09,12.85,2,20,6.94,24.07,10.92a37.42,37.42,0,0,1,9,14.22,33.28,33.28,0,0,1,1.63,10.32Z" style="fill:#fcbdb6"/><path d="M88.78,415.6H411.25a0,0,0,0,1,0,0V595.79a32.83,32.83,0,0,1-32.83,32.83H121.61a32.83,32.83,0,0,1-32.83-32.83V415.6a0,0,0,0,1,0,0Z" style="fill:#fcbdb6"/><rect x="113.92" y="614.73" width="270.94" height="44.32" style="fill:#fcbdb6"/><path d="M201.38,236.9c1-2.18,19.53,2.57,34.34,10.8C249.08,255.12,262.4,267,261,268.94,258.4,272.61,199.48,241,201.38,236.9Z" style="fill:#fcbdb6"/><path d="M295.48,236c-1-2.17-19.53,2.58-34.34,10.81-13.36,7.42-26.68,19.34-25.32,21.24C238.46,271.7,297.38,240.08,295.48,236Z" style="fill:#fcbdb6"/><path d="M92.68,273.52A327.79,327.79,0,0,0,44.8,350.46C29.1,385.88,24.16,413.74,16.2,474-7.34,652.22-2,670.92,11.87,682.9c18.66,16.12,50.76,18.35,71.06,5.33,30.82-19.75,29.22-71.36,23.4-183.11C101.7,416.11,96.93,338,92.68,273.52Z" style="fill:#fcbdb6"/><polygon points="74.22 708.85 12 697.68 15.7 671.35 77.92 682.51 74.22 708.85" style="fill:#fcbdb6"/><path d="M396.37,264.58c4.28-.88,11.05.47,47.56,45.36,20.74,25.48,36.61,47.25,47,62,34.14-26.81,54.5-52.64,67-72,7.69-11.91,12.81-21.45,24-25,24.45-7.76,62.51,13.88,68,42,1.94,9.92-.52,19-10,38-16.53,33.15-30.95,62.07-65,92-30.12,26.47-53.48,47.11-88,47-36.45-.12-62.21-22.9-69-29-32.9-29.63-38.71-69-42-91C369.21,328.2,376.67,268.61,396.37,264.58Z" style="fill:#fcbdb6"/><polygon points="587.9 278.21 644.87 305.61 657.3 282.1 600.32 254.7 587.9 278.21" style="fill:#fcbdb6"/></g><g id="Calque_3" data-name="Calque 3"><path d="M159.58,1193.71h51.14A22.26,22.26,0,0,1,233,1216v12.51a0,0,0,0,1,0,0H137.31a0,0,0,0,1,0,0V1216A22.26,22.26,0,0,1,159.58,1193.71Z" style="fill:#444"/><rect x="158.16" y="1161.25" width="53.23" height="32.45" style="fill:#443733"/><rect x="287.01" y="1161.25" width="53.23" height="32.45" style="fill:#443733"/><path d="M288.06,1193.71h51.14A22.26,22.26,0,0,1,361.46,1216v12.51a0,0,0,0,1,0,0H265.79a0,0,0,0,1,0,0V1216A22.26,22.26,0,0,1,288.06,1193.71Z" style="fill:#444"/><rect x="137.81" y="1228.98" width="94.66" height="10.01" style="fill:#fff"/><path d="M232,1229.48v9H138.31v-9H232m1-1H137.31v11H233v-11Z" style="fill:#444"/><rect x="266.29" y="1228.98" width="94.67" height="10.01" style="fill:#fff"/><path d="M360.46,1229.48v9H266.79v-9h93.67m1-1H265.79v11h95.67v-11Z" style="fill:#444"/></g><g id="Calque_4" data-name="Calque 4"><path d="M228.58,1177.94H141.53c-10.47-79.32-18.73-164.22-23.51-254.17-5-93.57-5.66-182-3.34-264.72h113.9Z" style="fill:#1c1c1c"/><path d="M312.47,720.08a223.92,223.92,0,0,0-62.82-11.23,228.77,228.77,0,0,0-69.23,8q-5.64-28.9-11.29-57.82H329.24Z" style="fill:#1c1c1c"/><path d="M270.21,1177.94h86.65c10.42-79.32,18.64-164.22,23.4-254.17,5-93.57,5.63-182,3.32-264.72H270.21Z" style="fill:#1c1c1c"/></g><g id="Calque_5" data-name="Calque 5"><path d="M146.33,254.93a296,296,0,0,1,82.56,18.56" style="fill:none;stroke:#d89a95;stroke-miterlimit:10;stroke-width:2px"/><path d="M350.65,254.93a296.18,296.18,0,0,0-82.56,18.56" style="fill:none;stroke:#d89a95;stroke-miterlimit:10;stroke-width:2px"/><path d="M106.9,353.7A710.81,710.81,0,0,0,107.15,618a13.76,13.76,0,0,0,13.35,11.22l175.8,1.56" style="fill:none;stroke:#d89a95;stroke-miterlimit:10;stroke-width:2px"/><path d="M393.22,429.22a118.11,118.11,0,0,0,16.12,25.6,126.47,126.47,0,0,0,25.37,23.25" style="fill:none;stroke:#d89a95;stroke-miterlimit:10;stroke-width:2px"/><path d="M11.87,679.17A110,110,0,0,1,36.34,681a109.07,109.07,0,0,1,19.44,5.56" style="fill:none;stroke:#d89a95;stroke-miterlimit:10;stroke-width:2px"/><path d="M508.06,360.81a109.87,109.87,0,0,0-30.88,32.09" style="fill:none;stroke:#d89a95;stroke-miterlimit:10;stroke-width:2px"/><path d="M603.93,286.94a78.34,78.34,0,0,0,41,19" style="fill:none;stroke:#d89a95;stroke-miterlimit:10;stroke-width:2px"/><path d="M128.93,710.94c-.32,62.26.87,127.34,4,195,3.94,85,10.56,165.81,19,242" style="fill:none;stroke:#5b5b5b;stroke-miterlimit:10;stroke-width:2px"/><rect x="298.93" y="369.94" width="48" height="14" rx="7" style="fill:#d89a95"/></g></g></svg>