<svg xmlns="http://www.w3.org/2000/svg" viewBox="0 0 1335.56 794.51"><defs><style>.cls-1{fill:#5765b2;}.cls-2{fill:#ffd985;}.cls-3{fill:#fff;}.cls-4,.cls-5{fill:none;stroke-miterlimit:10;}.cls-4{stroke:#232323;stroke-linecap:round;stroke-width:3px;}.cls-5{stroke:#fff;stroke-width:2px;}</style></defs><title>Fichier 9arbre gauche</title><g id="Calque_2" data-name="Calque 2"><g id="Calque_2-2" data-name="Calque 2"><rect class="cls-1" x="169.73" y="190.93" width="1004.06" height="600.71"/><rect class="cls-1" x="138.16" y="724.17" width="1059.24" height="68.26"/><rect class="cls-1" x="470.55" y="118.67" width="408.8" height="114.01"/><polygon class="cls-1" points="470.55 118.67 671.37 23.1 879.35 118.67 470.55 118.67"/><polygon class="cls-2" points="1017.35 190.72 1173.7 191.1 1173.7 543.1 1092.7 543.46 1092.7 281.1 1017.7 279.1 1017.35 190.72"/><polygon class="cls-2" points="138.16 792.43 137.7 724.1 169.34 724.17 169.34 524.49 322.7 524.1 322.7 682.1 371.7 682.1 372.01 792.1 138.16 792.43"/><ellipse class="cls-3" cx="672.55" cy="170.98" rx="57.26" ry="55.45"/><rect class="cls-3" x="262.22" y="309.61" width="45.57" height="101.66"/><rect class="cls-3" x="372.01" y="309.61" width="45.57" height="101.66"/><rect class="cls-3" x="481.81" y="309.61" width="45.57" height="101.66"/><rect class="cls-3" x="262.22" y="485.21" width="45.57" height="101.66"/><rect class="cls-3" x="372.01" y="485.21" width="45.57" height="101.66"/><rect class="cls-3" x="481.81" y="485.21" width="45.57" height="101.66"/><rect class="cls-3" x="808.19" y="309.61" width="45.57" height="101.66"/><rect class="cls-3" x="917.98" y="309.61" width="45.57" height="101.66"/><rect class="cls-3" x="1027.78" y="309.61" width="45.57" height="101.66"/><rect class="cls-3" x="808.19" y="485.21" width="45.57" height="101.66"/><rect class="cls-3" x="917.98" y="485.21" width="45.57" height="101.66"/><rect class="cls-3" x="1027.78" y="485.21" width="45.57" height="101.66"/><path class="cls-3" d="M738.7,792.41H606.4V637.09c8-28.23,35.25-48,66.15-48s58.15,19.77,66.15,48Z"/><polyline class="cls-4" points="672.55 141.71 672.55 166.36 691.64 191"/><line class="cls-5" y1="793.51" x2="1335.56" y2="793.51"/><rect class="cls-2" x="581.28" y="519.1" width="173" height="47"/><path class="cls-3" d="M642.51,543.79l9.06-17.73h6.27v32.53h-6.32V538.41l-7.07,14.34h-4l-7-14.2v20h-6.27V526.06h6.18Z"/><path class="cls-3" d="M679.57,543.79l9-17.73h6.27v32.53h-6.31V538.41l-7.08,14.34h-4l-7-14.2v20h-6.28V526.06h6.18Z"/><path class="cls-3" d="M708.37,558.59h-6.6V526.06h6.6Z"/></g><g id="Calque_3" data-name="Calque 3"><polyline class="cls-5" points="454.79 176.1 454.79 107.1 673.79 1.1 759.79 40.1"/></g></g></svg>