<svg xmlns="http://www.w3.org/2000/svg" width="285.342" height="211.728" viewBox="0 0 285.342 211.728"><path d="M789,586c-9.578-16.424-8.794-33.106-8-50,.681-14.479,2.642-56.221,33-83,18.5-16.319,38.622-19.21,65-23,21.042-3.023,79.019-11.353,134,23,21.151,13.215,46.829,29.26,52,57,8.289,44.471-42.35,86.052-72,103-52.505,30.012-106.062,17.723-131,12C836.738,619.2,804.643,612.823,789,586Z" transform="translate(-780.563 -420.673)" fill="#d0c3e5"/><g transform="translate(-780.563 -420.673)"><rect width="145.906" height="87.292" transform="translate(839.529 445.176)" fill="#a5a5a5"/><rect width="153.924" height="9.92" transform="translate(834.999 522.549)" fill="#a5a5a5"/><rect width="59.405" height="16.567" transform="translate(883.301 434.561)" fill="#a5a5a5"/><path d="M883.3,434.561l29.181-13.887,30.223,13.887Z" fill="#a5a5a5"/><ellipse cx="8.32" cy="8.058" rx="8.32" ry="8.058" transform="translate(904.334 434.103)" fill="#fff"/><rect width="6.622" height="14.773" transform="translate(853.026 462.307)" fill="#fff"/><rect width="6.622" height="14.773" transform="translate(868.981 462.307)" fill="#fff"/><rect width="6.622" height="14.773" transform="translate(884.936 462.307)" fill="#fff"/><rect width="6.622" height="14.773" transform="translate(853.026 487.824)" fill="#fff"/><rect width="6.622" height="14.773" transform="translate(868.981 487.824)" fill="#fff"/><rect width="6.622" height="14.773" transform="translate(884.936 487.824)" fill="#fff"/><rect width="6.622" height="14.773" transform="translate(932.364 462.307)" fill="#fff"/><rect width="6.622" height="14.773" transform="translate(948.319 462.307)" fill="#fff"/><rect width="6.622" height="14.773" transform="translate(964.274 462.307)" fill="#fff"/><rect width="6.622" height="14.773" transform="translate(932.364 487.824)" fill="#fff"/><rect width="6.622" height="14.773" transform="translate(948.319 487.824)" fill="#fff"/><rect width="6.622" height="14.773" transform="translate(964.274 487.824)" fill="#fff"/><path d="M923.748,533.483H901.561V510.911c1.341-4.1,5.912-6.975,11.093-6.975s9.752,2.874,11.094,6.975Z" fill="#fff"/><path d="M912.654,437.909v3.581l2.773,3.581" fill="none" stroke="#232323" stroke-linecap="round" stroke-miterlimit="10" stroke-width="0.5"/><line x2="194.078" transform="translate(814.922 532.625)" fill="none" stroke="#282828" stroke-miterlimit="10" stroke-width="0.75"/></g><text transform="translate(95.139 130.676)" fill="#515151" font-size="32" font-family="DIN-Medium, DIN" font-weight="500"><tspan x="0" y="32">MMI</tspan></text></svg>