<svg xmlns="http://www.w3.org/2000/svg" viewBox="0 0 285.34 205.51"><defs><style>.cls-1{fill:#d0c3e5;}.cls-2{fill:#5765b2;}.cls-3{fill:#ffd985;}.cls-4{fill:#fff;}.cls-5,.cls-6{fill:none;stroke-miterlimit:10;}.cls-5{stroke:#232323;stroke-linecap:round;stroke-width:0.75px;}.cls-6{stroke:#fff;}</style></defs><title>Fichier 5</title><g id="Calque_2" data-name="Calque 2"><g id="socle"><path class="cls-1" d="M8.44,159.11c-9.58-16.42-8.8-33.1-8-50,.68-14.48,2.64-56.22,33-83,18.5-16.32,38.62-19.21,65-23,21-3,79-11.35,134,23,21.15,13.22,46.83,29.26,52,57,8.29,44.47-42.35,86.05-72,103-52.51,30-106.06,17.73-131,12C56.18,192.32,24.08,185.94,8.44,159.11Z"/></g><g id="MMI"><rect class="cls-2" x="68.83" y="31.75" width="123.45" height="73.86"/><rect class="cls-2" x="64.95" y="97.31" width="130.24" height="8.39"/><rect class="cls-2" x="105.82" y="22.86" width="50.26" height="14.02"/><polygon class="cls-2" points="105.81 22.86 130.51 11.11 156.08 22.86 105.81 22.86"/><polygon class="cls-3" points="173.04 31.84 192.27 31.89 192.27 75.17 182.31 75.21 182.31 42.96 173.09 42.71 173.04 31.84"/><polygon class="cls-3" points="64.95 105.7 64.89 97.3 68.78 97.31 68.78 72.76 87.64 72.71 87.64 92.14 93.66 92.14 93.7 105.66 64.95 105.7"/><ellipse class="cls-4" cx="130.65" cy="29.29" rx="7.04" ry="6.82"/><rect class="cls-4" x="80.2" y="46.34" width="5.6" height="12.5"/><rect class="cls-4" x="93.7" y="46.34" width="5.6" height="12.5"/><rect class="cls-4" x="107.2" y="46.34" width="5.6" height="12.5"/><rect class="cls-4" x="80.2" y="67.93" width="5.6" height="12.5"/><rect class="cls-4" x="93.7" y="67.93" width="5.6" height="12.5"/><rect class="cls-4" x="107.2" y="67.93" width="5.6" height="12.5"/><rect class="cls-4" x="147.33" y="46.34" width="5.6" height="12.5"/><rect class="cls-4" x="160.83" y="46.34" width="5.6" height="12.5"/><rect class="cls-4" x="174.33" y="46.34" width="5.6" height="12.5"/><rect class="cls-4" x="147.33" y="67.93" width="5.6" height="12.5"/><rect class="cls-4" x="160.83" y="67.93" width="5.6" height="12.5"/><rect class="cls-4" x="174.33" y="67.93" width="5.6" height="12.5"/><path class="cls-4" d="M138.79,105.7H122.52V86.6a8.56,8.56,0,0,1,16.27,0Z"/><polyline class="cls-5" points="130.65 25.7 130.65 28.73 133 31.76"/><line class="cls-6" x1="47.96" y1="105.84" x2="212.17" y2="105.84"/><rect class="cls-3" x="122.94" y="74.61" width="16" height="3"/></g></g></svg>