<svg xmlns="http://www.w3.org/2000/svg" viewBox="0 0 457.77 1191.12"><title>pierre_figurine</title><g id="Calque_2" data-name="Calque 2"><g id="Calque_1-2" data-name="Calque 1"><rect x="190.8" y="168.79" width="75.82" height="83.33" style="fill:#e5c2b1"/><path d="M190.29,174.57c8.78,2.64,19.18,5.38,31.17,7.84a410.52,410.52,0,0,0,44.31,6.53A117.7,117.7,0,0,1,238.16,205c-18.22,7.78-35.88,12.42-47.39,14.18C190.81,204.64,190.24,189.1,190.29,174.57Z" style="fill:#c6aca1"/><rect x="140.32" y="91.65" width="178.45" height="29.98" rx="12.24" style="fill:#e5c2b1"/><path d="M230.42,193.57c-22.35.24-43.47-9.47-56.19-23.8-17.41-19.61-22.91-52.18-22.91-52.18h0V73.8c0-40.76,35-73.8,78.22-73.8h0c43.21,0,78.23,33,78.23,73.8v43.79a78.61,78.61,0,0,1-22.91,52.18C279.79,174.81,260.66,193.23,230.42,193.57Z" style="fill:#e5c2b1"/><circle cx="267.94" cy="90.55" r="8.23" style="fill:#191919"/><circle cx="195" cy="91.65" r="8.23" style="fill:#191919"/><rect x="249.66" y="65.01" width="38.76" height="8.04" rx="4.02" style="fill:#493a33"/><rect x="171.95" y="65.01" width="38.76" height="8.04" rx="4.02" style="fill:#493a33"/><path d="M229.5,97.32q2.58,6.89,5.15,13.78a4,4,0,0,1-1.79,4.9L228,118.73" style="fill:none;stroke:#191919;stroke-miterlimit:10"/><path d="M151.66,112.08c10,33.54,19.21,40.25,25.56,40.59,10,.54,12.54-14.73,31.29-22.61,14.58-6.12,32.43-5,45.9,1,18.25,8.24,21.08,22.34,30.25,21.58,6.69-.56,15-8.91,22.94-41.1.47,7.45,1,31.67-15.64,54.46-7,9.56-26.25,31.45-57.89,33.4-30.81,1.9-51.94-16.43-57.9-22.1C149.19,151.66,151.27,117.07,151.66,112.08Z" style="fill:#493a33"/><path d="M151.77,92.18a169.42,169.42,0,0,1,28-62h100a110,110,0,0,1,15,21,111.88,111.88,0,0,1,13,41c1.08-7.85,4.37-38.37-15-63a75.75,75.75,0,0,0-19-17,80.12,80.12,0,0,0-44-12,80.07,80.07,0,0,0-44,12,75.58,75.58,0,0,0-19,17C147.4,53.81,150.69,84.33,151.77,92.18Z" style="fill:#44362e"/><path d="M36.71,666.33c-9.3,5.07-8.47,23.48-6.8,60.3,1.56,34.68,6.54,43.58,13,48.84,7.14,5.86,18.23,9.08,22.91,5,3.33-2.87,1.39-8.1.14-31.9-.74-14-.43-18.93,1.59-19.61,1.87-.63,4.92,2.42,6.58,5.37,5.19,9.22-2.3,19.14,2.72,24.21,1.21,1.21,3.54,2.56,5.64,2,7.83-2.09,8.55-29.51,4.13-51.07-1.92-9.38-3.12-15.24-7.45-22C69.28,672.25,48.13,660.11,36.71,666.33Z" style="fill:#e5c2b1"/><rect x="139.61" y="1112.88" width="53.23" height="32.45" style="fill:#c6aca1"/><rect x="268.46" y="1112.88" width="53.23" height="32.45" style="fill:#c6aca1"/><path d="M40.36,422.46c-19,11.36-23.16,41.59-18.76,152,1.34,33.62,3.65,80,7.9,135.73q18.26-18.51,36.53-37c2.26-20,6.2-53.68,11.85-95.52,13.22-98.08,21.15-135.51,1-152C68.53,417.23,52,415.51,40.36,422.46Z" style="fill:#e5c2b1"/><path d="M432.55,424.73c18.24,12.52,20.61,42.95,9.54,152.87-3.37,33.48-8.47,79.66-16.08,135l-34.23-39.2c-1-20.12-2.95-54-6-96.07-7.28-98.72-12.93-136.57,8.19-151.77C404.74,417.77,421.38,417.08,432.55,424.73Z" style="fill:#e5c2b1"/><path d="M420.5,668.32c9,5.63,7,23.95,3.15,60.6-3.65,34.53-9.16,43.09-15.89,48-7.47,5.4-18.74,7.93-23.17,3.6-3.15-3.07-.9-8.17,1.79-31.85C388,734.69,388,729.75,386,729c-1.82-.75-5.05,2.11-6.88,4.95-5.74,8.88,1.14,19.24-4.19,24-1.27,1.14-3.68,2.35-5.74,1.66-7.69-2.57-6.76-30-1.05-51.22,2.49-9.25,4-15,8.77-21.47C387.64,672.2,409.48,661.4,420.5,668.32Z" style="fill:#e5c2b1"/><polygon points="312.23 312.18 145.42 312.18 90.77 252.18 192.74 221.18 264.7 221.18 365.77 252.18 312.23 312.18" style="fill:#e5c2b1"/><path d="M212.77,147.18a34.94,34.94,0,0,0,35.5-1.5" style="fill:none;stroke:#191919;stroke-miterlimit:10"/><path d="M19.62,492.18l1,30c7.4,4,15.3,8.06,23.7,12,10.63,5,20.88,9.29,30.6,13q-3.45-20-6.91-40Z" style="fill:#c6aca1"/><path d="M448.39,488q-.56,15-1.1,30a197,197,0,0,1-27,14.14A194,194,0,0,1,386.71,543l7.71-40Z" style="fill:#c6aca1"/></g><g id="Calque_4" data-name="Calque 4"><path d="M141,1145.33h51.14a22.26,22.26,0,0,1,22.26,22.26v12.51a0,0,0,0,1,0,0H118.76a0,0,0,0,1,0,0V1167.6A22.26,22.26,0,0,1,141,1145.33Z" style="fill:#444"/><path d="M269.51,1145.33h51.14a22.26,22.26,0,0,1,22.26,22.26v12.51a0,0,0,0,1,0,0H247.24a0,0,0,0,1,0,0V1167.6A22.26,22.26,0,0,1,269.51,1145.33Z" style="fill:#444"/><rect x="119.26" y="1180.61" width="94.66" height="10.01" style="fill:#fff"/><path d="M213.43,1181.11v9H119.76v-9h93.67m1-1H118.76v11h95.67v-11Z" style="fill:#444"/><rect x="247.74" y="1180.61" width="94.67" height="10.01" style="fill:#fff"/><path d="M341.91,1181.11v9H248.24v-9h93.67m1-1H247.24v11h95.67v-11Z" style="fill:#444"/><path d="M210,1129.57H123c-10.47-79.33-18.73-164.22-23.52-254.17-5-93.57-5.65-182-3.33-264.72H210Z" style="fill:#1c1c1c"/><path d="M293.92,698.71a223.92,223.92,0,0,0-62.82-11.23,228.77,228.77,0,0,0-69.23,8q-5.64-28.9-11.29-57.82H310.69Z" style="fill:#1c1c1c"/><path d="M251.66,1129.57H338.3c10.43-79.33,18.64-164.22,23.41-254.17,5-93.57,5.63-182,3.32-264.72H251.66Z" style="fill:#1c1c1c"/></g><g id="Calque_2-2" data-name="Calque 2"><path d="M176.62,226.18c3.24,3.6,23.46,25.28,54.9,24,28-1.15,45.63-19.79,49.42-24q19.89,6,39.81,12,23.55,7,47.12,14c.3,14.68.26,83.26-47.82,137.08-8.17,9.14-50.39,56.41-101.34,51.92-60.5-5.33-118.93-82.35-124.45-190q21.27-6.54,42.55-13Q156.7,232.14,176.62,226.18Z" style="fill:#fc9"/><path d="M374.28,701.18a1322.36,1322.36,0,0,1-143.67,8,1320.29,1320.29,0,0,1-146.42-8c3.58-95.57-14.08-167.59-16.47-221-2.93-65.46-4-128.24-3.66-188.06,0-2.79.25-17.65,11.24-29.66a36.71,36.71,0,0,1,27.14-12.28H356c21.2,0,38.38,18.78,38.38,41.94.43,60.63-.63,124.42-3.66,191.06C387.27,560,381.52,632.74,374.28,701.18Z" style="fill:#fc9"/><path d="M70.46,268.18a594.46,594.46,0,0,0-35.69,79A620.62,620.62,0,0,0,0,500.18c20,11.08,83.43,43.7,114.39,17C149.33,487,138.69,384.92,70.46,268.18Z" style="fill:#fc9"/><path d="M387.3,268.18a593.18,593.18,0,0,1,35.69,79,620.24,620.24,0,0,1,34.78,153c-20,11.08-83.43,43.7-114.39,17C308.44,487,319.08,384.92,387.3,268.18Z" style="fill:#fc9"/></g><g id="Calque_3" data-name="Calque 3"><path d="M87.89,373.18a865.21,865.21,0,0,0-6.33,133c.56,17.9,1.52,29.9,4.52,75,3.25,48.86,5.68,88.4,7.23,114" style="fill:none;stroke:#eab381;stroke-linecap:round;stroke-miterlimit:10;stroke-width:2px"/><rect x="301.11" y="358.18" width="43.37" height="14" rx="7" style="fill:#eab381"/><path d="M374.3,407.18a606.55,606.55,0,0,1,7.23,67c.57,11,1.64,37.33-2.71,103-1.76,26.44-4.52,61.13-9,102" style="fill:none;stroke:#eab381;stroke-linecap:round;stroke-miterlimit:10;stroke-width:2px"/><path d="M11.09,485.18a83.53,83.53,0,0,0,18.07,15,77.13,77.13,0,0,0,32.52,11" style="fill:none;stroke:#eab381;stroke-linecap:round;stroke-miterlimit:10;stroke-width:2px"/><path d="M435.65,484.69a83.25,83.25,0,0,1-18.07,15,76.89,76.89,0,0,1-32.52,11" style="fill:none;stroke:#eab381;stroke-linecap:round;stroke-miterlimit:10;stroke-width:2px"/><path d="M167.61,233.18c5.57,5.06,27.33,23.59,60.23,24a91.55,91.55,0,0,0,52.32-16" style="fill:none;stroke:#eab381;stroke-linecap:round;stroke-miterlimit:10;stroke-width:2px"/></g><g id="Calque_5" data-name="Calque 5"><path d="M157.74,82.47c9.37-19.11,52.07-15.12,59,1.26C218.68,88.24,218,94,217.9,95.12c-1.25,11-8.87,17.56-10.22,18.72-12.87,11.14-38.15,9.38-47.67-7.53C159.68,105.72,152.65,92.85,157.74,82.47Z" style="fill:none;stroke:#545454;stroke-linecap:round;stroke-miterlimit:10"/><path d="M301.09,82.47c-9.13-18.59-51.32-17.23-59,1.26-4,9.65,1.73,23,9.08,30.11,14,13.4,38.57,8.63,47.68-7.53C299.15,105.72,306.17,92.85,301.09,82.47Z" style="fill:none;stroke:#545454;stroke-linecap:round;stroke-miterlimit:10"/><path d="M217.9,93.86a26.69,26.69,0,0,1,22.7,0" style="fill:none;stroke:#545454;stroke-linecap:round;stroke-miterlimit:10"/></g></g></svg>