<svg xmlns="http://www.w3.org/2000/svg" width="974.717" height="821.604" viewBox="0 0 974.717 821.604"><path d="M954,107c-67.691,3.858-118.256,47.869-124,53-40.393,36.08-31.322,57.844-67,92-41.256,39.495-70.618,26.893-157,60-69.647,26.693-134.381,51.5-169,113-37.7,66.964-18.868,140.445-16,151,16.8,61.833,52.469,73.514,116,158,79.505,105.729,52.633,125.982,98,161,80.3,61.979,203.043,28.306,401-26,100.265-27.506,151.489-42.094,205-83,28.428-21.732,132.2-101.063,146-223,17.375-153.558-120.317-265.347-264-382C1059.714,129.619,1010.492,103.78,954,107Z" transform="translate(-413.77 -106.732)" fill="#e5e5e5"/></svg>