<svg xmlns="http://www.w3.org/2000/svg" viewBox="0 0 384.9 1146.45"><title>Fichier 2Thanh_figurine</title><g id="Calque_2" data-name="Calque 2"><g id="Calque_6" data-name="Calque 6"><path d="M188.9,5.2c-7.69-3.1-25.19-8.81-43-2-19.63,7.5-28.14,25.76-36,43C99.28,69.51,96.18,96.94,90.41,150.84c-.83,7.77-1.36,13.37-1.49,14.73-2.9,30.32-10.46,78.31-31,155.63,9,34.34,17.83,59.58,22.42,69a121.47,121.47,0,0,0,8,13.87,105.72,105.72,0,0,0,7.94,10.13c39.2,44.28,114.93,49.76,168,39,19.66-4,35.35-8,51-21,32.21-26.8,35.26-69.25,35.66-80,.5-13.36-8-40.42-25-94-10.75-33.89-14-42-18.42-61.57-6.74-30-5.66-40.71-9.36-64.43-5.87-37.68-17.14-109-60.8-127C228.63,1.61,213-2.19,188.9,5.2Z" style="fill:#2b2b2b"/></g><g id="Calque_1-2" data-name="Calque 1"><rect x="159.18" y="186.12" width="65.72" height="83.33" style="fill:#efd0b9"/><path d="M158.74,182.2a242.52,242.52,0,0,0,27.32,9.54,265.53,265.53,0,0,0,38.84,7.95,102.88,102.88,0,0,1-24.2,19.56c-16,9.46-31.45,15.11-41.54,17.26C159.2,218.81,158.7,199.9,158.74,182.2Z" style="fill:#ddb99b"/><rect x="111.92" y="108.98" width="161.99" height="29.98" rx="12.24" style="fill:#efd0b9"/><path d="M196.9,206.2c-4.06.39-32.39,2.64-54.9-19.09-21.65-20.91-21.22-47.91-21.08-52.19V91.13c0-40.76,32.23-73.8,72-73.8h0c39.76,0,72,33,72,73.8v43.79c.14,4.34.53,31.44-21.08,52.19C224.92,205.24,202.1,206.13,196.9,206.2Z" style="fill:#efd0b9"/><circle cx="231.3" cy="107.88" r="8.23" style="fill:#191919"/><circle cx="158.36" cy="108.98" r="8.23" style="fill:#191919"/><rect x="214.02" y="83.2" width="38.76" height="6.18" rx="3.09" style="fill:#545454"/><rect x="136.31" y="83.2" width="38.76" height="6.18" rx="3.09" style="fill:#545454"/><path d="M192.86,115.65q2.58,6.88,5.15,13.78a4,4,0,0,1-1.78,4.9l-4.83,2.73" style="fill:none;stroke:#191919;stroke-miterlimit:10"/><rect x="114.67" y="1068.21" width="47.56" height="32.45" style="fill:#ddb99b"/><rect x="225.78" y="1068.21" width="47.56" height="32.45" style="fill:#ddb99b"/><path d="M364,394.37c13.38,12.38,14.87,42.78,5.77,152.73-2.77,33.48-6.93,79.68-13,135q-12.49-19.46-25-38.92c-.61-20.1-1.73-53.91-3.67-96-4.55-98.62-8.41-136.41,7.33-151.75C343.55,387.61,355.85,386.8,364,394.37Z" style="fill:#efd0b9"/><polygon points="267.51 329.51 116.76 329.51 68.9 273.26 159.52 240.2 224.56 240.2 315.9 270.62 267.51 329.51" style="fill:#efd0b9"/><path d="M168.9,157.2c.54-1.86,5.11-1,26.43-1.47,20.42-.43,24.95-1.38,25.57.47,1.13,3.31-11.09,13.47-25,14C181.32,170.75,167.91,160.62,168.9,157.2Z" style="fill:#fff"/><path d="M375.9,457.37q-1,15.92-2,31.83a189.82,189.82,0,0,1-50.79,23.17l6.6-40Z" style="fill:#ddb99b"/><path d="M351,636.36c8.32,4.64,8.95,23,10.21,59.8,1.19,34.65-2.42,43.74-7.53,49.27-5.68,6.16-14.93,9.87-19.23,6-3.06-2.71-1.78-8-2.44-31.79-.39-14-1-18.89-2.8-19.48-1.64-.55-4,2.64-5.23,5.65-3.76,9.42,3.36,19-.57,24.25-.94,1.26-2.84,2.72-4.67,2.25-6.85-1.73-9.47-29-7.26-50.71,1-9.44,1.56-15.34,4.78-22.23C323.56,643.72,340.77,630.67,351,636.36Z" style="fill:#efd0b9"/><path d="M18.54,394.37C5.16,406.75,3.67,437.15,12.77,547.1c2.77,33.48,6.93,79.68,13,135q12.48-19.46,25-38.92c.6-20.1,1.73-53.91,3.67-96C59,448.6,62.84,410.81,47.1,395.47,39,387.61,26.73,386.8,18.54,394.37Z" style="fill:#efd0b9"/><path d="M6.68,457.57,8.9,492.2c7,3.21,14.24,6.4,21.84,9.51q14.85,6.09,28.74,10.86l-6.6-40Z" style="fill:#ddb99b"/><path d="M29.48,635.35c-8.4,4.51-9.31,22.88-11.13,59.64-1.72,34.62,1.76,43.76,6.78,49.38,5.58,6.24,14.78,10.09,19.14,6.33,3.09-2.67,1.9-8,2.92-31.75.61-14,1.3-18.88,3.09-19.44s4,2.7,5.15,5.73c3.62,9.48-3.65,18.92.2,24.26.92,1.28,2.79,2.76,4.63,2.32,6.88-1.62,9.91-28.88,8-50.6-.82-9.45-1.33-15.35-4.44-22.3C56.79,643.12,39.78,629.82,29.48,635.35Z" style="fill:#efd0b9"/></g><g id="Calque_4" data-name="Calque 4"><path d="M118.31,1100.66h40.94a22.26,22.26,0,0,1,22.26,22.26v12.51a0,0,0,0,1,0,0H96a0,0,0,0,1,0,0v-12.51A22.26,22.26,0,0,1,118.31,1100.66Z" style="fill:#444"/><path d="M229.09,1100.66H270a22.26,22.26,0,0,1,22.26,22.26v12.51a0,0,0,0,1,0,0H206.83a0,0,0,0,1,0,0v-12.51A22.26,22.26,0,0,1,229.09,1100.66Z" style="fill:#444"/><rect x="96.54" y="1135.94" width="84.47" height="10.01" style="fill:#fff"/><path d="M180.51,1136.44v9H97v-9h83.47m1-1H96v11h85.47v-11Z" style="fill:#444"/><rect x="209.33" y="1135.94" width="84.47" height="10.01" style="fill:#fff"/><path d="M293.3,1136.44v9H209.83v-9H293.3m1-1H208.83v11H294.3v-11Z" style="fill:#444"/><path d="M173.9,1077.9H104.58c-8.34-79.32-14.91-164.22-18.72-254.17-4-93.57-4.5-182-2.66-264.72h90.7Z" style="fill:#1c1c1c"/><path d="M250.86,647a183.24,183.24,0,0,0-56.45-11.23,185.91,185.91,0,0,0-62.2,8q-5.09-28.91-10.15-57.82H265.93Q258.4,616.54,250.86,647Z" style="fill:#1c1c1c"/><path d="M215.28,1078.69H284.6c8.34-79.32,14.91-164.22,18.73-254.17,4-93.57,4.5-182,2.65-264.72h-90.7Z" style="fill:#1c1c1c"/><path d="M94.87,630.86c-.33,62.27.87,127.35,4,195,3.94,85,10.56,165.81,19,242" style="fill:none;stroke:#5b5b5b;stroke-miterlimit:10;stroke-width:2px"/></g><g id="Calque_3" data-name="Calque 3"><path d="M148.25,243.51c2.73,3,19.75,21.34,46.22,20.26,23.61-1,36.25-17,39.43-20.57,11.17,3.37,24.5,7.05,35.67,10.44q20.67,6.25,41.33,12.56c.36,13.63.32,69.93-41.92,115-8.61,9.18-44,46.9-85.29,43.81C132.88,421.18,82.46,356.8,78.9,265.2q17.58-5.85,35.85-11.56Q131.7,248.35,148.25,243.51Z" style="fill:#9ad5bf"/><path d="M323.9,663.2c-36.28,4.22-86.08,6.95-130.2,7-45,0-94.9-1.71-131.8-6-4.6-27.22-1.64-67.3-5-114.64-2.69-37.94-.45-32-3-75.53,0,0-4.69-80-.39-173.12.24-5.09.9-16.26,8.39-25.15,7.23-8.58,17.52-11.12,23.92-12H299.27c17.84,0,32.3,16.62,32.3,37.14.37,53.68-.53,110.16-3.08,169.17C325.56,538.06,330,602.6,323.9,663.2Z" style="fill:#9ad5bf"/><path d="M324.9,278.2a504.17,504.17,0,0,1,30.73,67.44A508.37,508.37,0,0,1,384.9,474.79c-15.41,7.92-69.16,34.87-96.28,14.34C256.8,465.05,267.75,380.21,324.9,278.2Z" style="fill:#9ad5bf"/><path d="M60,277.84A505.62,505.62,0,0,0,0,474.43c15.41,7.93,69.17,34.87,96.28,14.35C128.1,464.69,117.15,379.85,60,277.84Z" style="fill:#9ad5bf"/><rect x="242.83" y="378.45" width="43.37" height="14" rx="7" style="fill:#7eaf9b"/></g><g id="Calque_2-2" data-name="Calque 2"><path d="M312.77,394.29A1176.7,1176.7,0,0,1,317.9,514.2a1172.16,1172.16,0,0,1-9,136" style="fill:none;stroke:#7eaf9b;stroke-linecap:round;stroke-miterlimit:10;stroke-width:2px"/><path d="M6.9,463.2a99.61,99.61,0,0,0,9.66,7.11A107.94,107.94,0,0,0,30,477.63,159.17,159.17,0,0,0,48.9,485.2" style="fill:none;stroke:#7eaf9b;stroke-linecap:round;stroke-miterlimit:10;stroke-width:2px"/><path d="M374.9,459.72a71.91,71.91,0,0,1-15.65,12.66,68,68,0,0,1-28.17,9.28" style="fill:none;stroke:#7eaf9b;stroke-linecap:round;stroke-miterlimit:10;stroke-width:2px"/><path d="M140.67,253.42c4.7,4.27,23,19.91,50.7,20.25a76.83,76.83,0,0,0,44-13.5" style="fill:none;stroke:#7eaf9b;stroke-linecap:round;stroke-miterlimit:10;stroke-width:2px"/><path d="M68.9,362.2c-2,38.26-3.06,78.3-3,120,.09,56.73,2.31,110.5,6,161" style="fill:none;stroke:#7eaf9b;stroke-linecap:round;stroke-miterlimit:10;stroke-width:2px"/></g><g id="Calque_7" data-name="Calque 7"><path d="M194.37,14.11c.14.18.28.39.28.39,3.18,4.51-1.34,11.89-2.93,14.54-11.88,19.81-35.48,38.53-35.56,38.59h0S145.42,80.29,120.9,109.2c-.83-3.49-12.35-54.79,17.48-80.16C160.07,10.59,194.19,13.88,194.37,14.11Z" style="fill:#2b2b2b"/><path d="M192.12,27.2c8.58,46,58.9,53.32,71.78,100,.56,2,.71,20,1,56,.36,44.26-.43,65.34,10.05,70,5.37,2.39,12.84,0,17.95-4,28.18-21.85-4.33-106.13-8-140a158.21,158.21,0,0,0-5.09-26c-.28-1-.57-2-.89-3C265.28,37.86,233,17.2,233,17.2c-3.7-2.35-28.56-18.09-38.13-10C193.56,8.33,189.39,12.58,192.12,27.2Z" style="fill:#2b2b2b"/><path d="M90.9,241.2c-1.43,17.48-3.27,41.84-5,71-4.32,73-2.74,88.56,8,97.17,4.44,3.56,20.09,13.67,61-3.25a545,545,0,0,0,8.92-105,544.25,544.25,0,0,0-7.92-85.91Z" style="fill:#2b2b2b"/></g></g></svg>