<svg xmlns="http://www.w3.org/2000/svg" viewBox="0 0 974.72 821.6"><defs><style>.cls-1{fill:#e5e5e5;}.cls-2{fill:#efc68f;}.cls-3{fill:#96cfe2;}.cls-4{fill:#d0c3e5;}.cls-5{fill:#fcbdb6;}.cls-6{fill:#9ad5bf;}.cls-28,.cls-7{fill:#5765b2;}.cls-8{fill:#fff;}.cls-31,.cls-9{fill:#ffd985;}.cls-10{fill:#a5a5a5;}.cls-11,.cls-12,.cls-13,.cls-14,.cls-15,.cls-16,.cls-18,.cls-20,.cls-22,.cls-24,.cls-25,.cls-26,.cls-29,.cls-30,.cls-32,.cls-33{fill:none;}.cls-11,.cls-13,.cls-31,.cls-32,.cls-33{stroke:#a5a5a5;}.cls-11,.cls-12,.cls-13,.cls-14,.cls-15,.cls-16,.cls-18,.cls-20,.cls-21,.cls-22,.cls-24,.cls-25,.cls-26,.cls-28,.cls-29,.cls-30,.cls-31,.cls-32,.cls-33{stroke-miterlimit:10;}.cls-11,.cls-12,.cls-15,.cls-20,.cls-25{stroke-width:0.75px;}.cls-12,.cls-16{stroke:#5765b2;}.cls-13{stroke-width:0.2px;}.cls-14,.cls-15,.cls-21{stroke:#fff;}.cls-16{stroke-width:3px;}.cls-17{font-size:12px;font-family:MyriadPro-Regular, Myriad Pro;}.cls-18{stroke:#efc581;}.cls-18,.cls-26{stroke-width:2px;}.cls-19{fill:#ffd00b;}.cls-20{stroke:#232323;stroke-linecap:round;}.cls-21{fill:#3a3a3a;}.cls-22{stroke:#ffd039;}.cls-23{fill:#3f3f3f;}.cls-24,.cls-25{stroke:#3f3f3f;}.cls-24,.cls-30,.cls-33{stroke-width:0.5px;}.cls-26{stroke:#ffe161;}.cls-27{fill:#ffe161;}.cls-28,.cls-29,.cls-30{stroke:#ffd985;}</style></defs><title>Fichier 3</title><g id="Calque_2" data-name="Calque 2"><g id="Base"><path class="cls-1" d="M540.23.27c-67.69,3.86-118.26,47.87-124,53-40.39,36.08-31.32,57.84-67,92-41.26,39.49-70.62,26.89-157,60-69.65,26.69-134.38,51.5-169,113-37.7,67-18.87,140.44-16,151,16.8,61.83,52.47,73.51,116,158,79.5,105.73,52.63,126,98,161,80.3,62,203,28.3,401-26,100.26-27.51,151.49-42.1,205-83,28.43-21.73,132.2-101.06,146-223,17.37-153.56-120.32-265.35-264-382C645.94,22.89,596.72-2.95,540.23.27Z"/></g><g id="socle"><path class="cls-2" d="M380.23,214.27c-20.7-49.68,30.5-119.73,68-150,11.38-9.19,46.84-37.36,96-39,17.64-.59,48.8,1.75,125,53,79,53.1,155.47,104.55,145,152-5.9,26.76-37.76,44.5-62,58-14,7.79-39.17,22.2-73,23-27.44.65-48-7.82-56-11C502.25,252,404,271.4,380.23,214.27Z"/><path class="cls-3" d="M30.22,428.76c-8.77-67.08,34.55-115.41,43.72-125.64,28.19-31.46,60.52-43,125.17-66.07,61.27-21.87,101.29-36.15,121.21-19.55,18.21,15.2,4.19,43.38-4,108C300.86,447.91,335,475.66,303.43,516.24c-31.85,41-102.79,59.19-163.93,41C72.48,537.19,36.82,479.22,30.22,428.76Z"/><path class="cls-4" d="M375.23,479.27c-9.58-16.43-8.79-33.11-8-50,.68-14.48,2.64-56.22,33-83,18.5-16.32,38.62-19.21,65-23,21-3,79-11.35,134,23,21.15,13.21,46.83,29.26,52,57,8.29,44.47-42.35,86.05-72,103-52.51,30-106.06,17.72-131,12C423,512.47,390.87,506.09,375.23,479.27Z"/><path class="cls-5" d="M635.23,547.27c-5-32.76,23.66-50.24,71-112,68.48-89.34,63.07-124,103-135,40.73-11.17,88,13.53,113,45,44.54,56.16,16.93,132.69,6,163-25.9,71.79-95.07,156.81-164,148-31.19-4-57.4-26.55-80-46C658.33,588,638.92,571.27,635.23,547.27Z"/><path class="cls-6" d="M191.23,622.27c7-10.84,16.75-16.69,102-41,34.16-9.74,51.23-14.61,59-16,41.47-7.43,54.61-1.1,117,0,85,1.49,108.8-9.4,136,12,8.85,7,15.9,18,30,40,26.37,41.2,41.51,64.85,38,84-3.36,18.36-25.09,35.44-152,64-141.45,31.83-219.29,48.19-280,5-40.27-28.65-52-75-52-75C184.52,678.74,175.37,646.68,191.23,622.27Z"/></g><g id="audiovisuel"><rect class="cls-7" x="509.14" y="56.54" width="79.04" height="132.86"/><rect class="cls-7" x="509.14" y="49.27" width="39.52" height="10.91"/><path class="cls-8" d="M519.93,132.41v.68c0,.81.25,1.26.89,1.26s.82-.62.82-1.33c0-1.18-.25-1.54-1.42-2.47s-1.81-1.52-1.81-3.14c0-1.44.44-2.89,2.41-2.89s2.33,1.44,2.33,2.63v.58h-1.67v-.54c0-.76-.13-1.22-.69-1.22s-.69.48-.69,1.2.15,1.15,1.11,1.85c1.63,1.21,2.14,1.92,2.14,3.75,0,1.55-.55,3-2.59,3s-2.51-1.29-2.51-2.73v-.65Z"/><path class="cls-8" d="M526.32,126.26h-1.76v-1.57h5.21v1.57H528v9.37h-1.68Z"/><path class="cls-8" d="M532.94,124.69V133c0,.8.26,1.25.92,1.25s.88-.51.88-1.25v-8.32h1.69V133c0,1.72-.78,2.81-2.61,2.81s-2.56-.94-2.56-2.81v-8.29Z"/><path class="cls-8" d="M538.66,124.69H541c2.32,0,2.89,1.21,2.89,3.24v4.19c0,1.67-.29,3.51-2.89,3.51h-2.34Zm1.69,9.5h.54c1.11,0,1.28-.71,1.28-1.84v-4.56c0-1-.18-1.65-1.29-1.65h-.53Z"/><path class="cls-8" d="M547.65,124.69v10.94H546V124.69Z"/><path class="cls-8" d="M555,127.6v5.1c0,2.1-.89,3.09-2.74,3.09s-2.58-1-2.58-3.06v-5.15c0-2.09,1.06-3,2.69-3S555,125.49,555,127.6Zm-3.6-.17v5.5c0,.91.33,1.34.93,1.34s1-.4,1-1.36v-5.49c0-.87-.26-1.35-1-1.35S551.44,126.51,551.44,127.43Z"/><path class="cls-8" d="M565.64,131.56c0-1.86,0-4.17.05-5.42h0c-.26,1.89-.86,6.32-1.33,9.49h-1.59c-.36-2.84-1-7.51-1.22-9.51h0c0,1.28.08,3.75.08,5.63v3.88h-1.52V124.69h2.51c.42,2.78.86,5.9,1,7.43h0c.17-1.55.77-4.8,1.2-7.43h2.43v10.94h-1.6Z"/><path class="cls-8" d="M575.11,131.56c0-1.86,0-4.17.06-5.42h0c-.25,1.89-.86,6.32-1.33,9.49h-1.59c-.35-2.84-1-7.51-1.21-9.51h0c0,1.28.09,3.75.09,5.63v3.88h-1.53V124.69h2.51c.43,2.78.87,5.9,1,7.43h0c.18-1.55.77-4.8,1.21-7.43h2.42v10.94h-1.6Z"/><path class="cls-8" d="M580.7,124.69v10.94H579V124.69Z"/><path class="cls-9" d="M547.74,144.06h3.46a15.6,15.6,0,0,1,15.6,15.6V189.4a0,0,0,0,1,0,0H532.14a0,0,0,0,1,0,0V159.66A15.6,15.6,0,0,1,547.74,144.06Z"/><rect class="cls-8" x="528.3" y="88.85" width="43.64" height="25.99"/><rect class="cls-10" x="528.3" y="88.85" width="43.64" height="3.57"/><line class="cls-11" x1="540.79" y1="101.35" x2="567.97" y2="101.35"/><line class="cls-11" x1="540.79" y1="104.32" x2="567.97" y2="104.32"/><line class="cls-11" x1="540.79" y1="107.3" x2="567.97" y2="107.3"/><rect class="cls-10" x="527.81" y="82.37" width="43.64" height="3.57" transform="translate(-6.38 78.69) rotate(-8.14)"/><polygon class="cls-8" points="535.35 88 531.51 84.95 536.22 84.27 540.07 87.33 535.35 88"/><polygon class="cls-8" points="535.4 88.85 532.03 92.42 536.79 92.42 540.16 88.85 535.4 88.85"/><polygon class="cls-8" points="545.15 86.6 541.31 83.55 546.02 82.87 549.87 85.93 545.15 86.6"/><polygon class="cls-8" points="545.3 88.85 541.93 92.42 546.69 92.42 550.06 88.85 545.3 88.85"/><polygon class="cls-8" points="554.7 85.24 550.85 82.18 555.57 81.5 559.41 84.56 554.7 85.24"/><polygon class="cls-8" points="554.94 88.85 551.57 92.42 556.33 92.42 559.71 88.85 554.94 88.85"/><polygon class="cls-8" points="564.32 83.86 560.48 80.8 565.19 80.13 569.03 83.19 564.32 83.86"/><polygon class="cls-8" points="564.66 88.85 561.29 92.42 566.05 92.42 569.42 88.85 564.66 88.85"/><line class="cls-12" x1="549.39" y1="144.06" x2="549.39" y2="189.4"/><path class="cls-8" d="M667.94,190.43H616V101.82c-.69-13.46,11.08-24.78,25.33-25.08,14.7-.32,27.28,11.18,26.58,25.08Z"/><path class="cls-10" d="M611.15,112.84H616a0,0,0,0,1,0,0V129.9a0,0,0,0,1,0,0H602.74a0,0,0,0,1,0,0v-8.65A8.41,8.41,0,0,1,611.15,112.84Z"/><path class="cls-8" d="M612.51,110.86h.65a0,0,0,0,1,0,0V183.6a0,0,0,0,1,0,0H602.74a0,0,0,0,1,0,0v-63a9.77,9.77,0,0,1,9.77-9.77Z"/><path class="cls-7" d="M630.4,79.25a20,20,0,0,1,4.23-1.62,31,31,0,0,1,14.23-.12,20.75,20.75,0,0,1,4.89,1.8Z"/><rect class="cls-7" x="602.74" y="139.6" width="2.33" height="34.84"/><path class="cls-7" d="M661.83,85.36H622.14a24,24,0,0,1,3.05-2.88,23.45,23.45,0,0,1,3.24-2.15h27.12a23.86,23.86,0,0,1,6.28,5Z"/><rect class="cls-8" x="641.18" y="79.97" width="1.98" height="6.11"/><rect class="cls-7" x="635.66" y="86.61" width="12.93" height="10.42" rx="1.72"/><circle class="cls-10" cx="642.12" cy="91.73" r="3.5"/><rect class="cls-7" x="616.03" y="106.73" width="51.91" height="1.26"/><path class="cls-7" d="M623,105.47h-7c0-.41,0-1,0-1.79,0-2.63,0-3.25,0-4.31a28.11,28.11,0,0,1,.36-3.24H623Z"/><rect class="cls-7" x="624.12" y="96.13" width="2.87" height="9.34"/><rect class="cls-7" x="628.43" y="96.13" width="5.93" height="9.34"/><rect class="cls-9" x="630.04" y="97.57" width="2.69" height="2.69"/><rect class="cls-9" x="630.04" y="101.34" width="2.69" height="2.69"/><rect class="cls-7" x="636.15" y="99.55" width="14.91" height="5.93"/><circle class="cls-9" cx="648.32" cy="102.54" r="1.74"/><circle class="cls-10" cx="655.65" cy="102.54" r="1.74"/><rect class="cls-7" x="660.4" y="96.13" width="2.87" height="9.34"/><path class="cls-7" d="M667.94,105.47h-3.41V96.13h3.05a21.83,21.83,0,0,1,.36,3.06c0,.84,0,1.39,0,2.51Z"/><rect class="cls-7" x="626.67" y="110.68" width="30.71" height="2.51"/><rect class="cls-7" x="626.81" y="116.07" width="30.71" height="2.51"/><rect class="cls-7" x="626.81" y="121.46" width="30.71" height="2.51"/><rect class="cls-7" x="626.81" y="115.17" width="7" height="4.31"/><rect class="cls-7" x="650.52" y="120.56" width="7" height="4.31"/><path class="cls-7" d="M637.78,162h8.32a3.74,3.74,0,0,1,3.74,3.74v24.64a0,0,0,0,1,0,0H634a0,0,0,0,1,0,0V165.79A3.74,3.74,0,0,1,637.78,162Z"/><rect class="cls-8" x="636.28" y="164.02" width="11.32" height="11.32" rx="2"/><rect class="cls-8" x="636.28" y="177.14" width="11.32" height="11.32" rx="1.99"/><rect class="cls-13" x="618.01" y="118" width="6.11" height="56.94"/><rect class="cls-13" x="643.42" y="126.76" width="14.91" height="33.41" rx="6.99"/><rect class="cls-10" x="656.09" y="171.03" width="1.7" height="18.14"/><rect class="cls-10" x="660.21" y="171.03" width="1.7" height="18.14"/><rect class="cls-10" x="664.09" y="171.03" width="1.7" height="18.14"/><rect class="cls-13" x="626.9" y="134.23" width="6.11" height="25.93"/><rect class="cls-7" x="634.26" y="136.71" width="1.44" height="21.03" rx="0.67"/><rect class="cls-7" x="636.69" y="136.63" width="1.44" height="21.03" rx="0.67"/><rect class="cls-7" x="639.38" y="136.63" width="1.44" height="21.03" rx="0.67"/><rect class="cls-10" x="667.94" y="112.66" width="13.29" height="17.06" transform="translate(1349.17 242.38) rotate(-180)"/><rect class="cls-8" x="670.81" y="110.68" width="10.42" height="72.74" transform="translate(1352.04 294.1) rotate(-180)"/><rect class="cls-7" x="678.9" y="139.42" width="2.33" height="34.84" transform="translate(1360.13 313.68) rotate(-180)"/><line class="cls-14" x1="474.23" y1="190.27" x2="696.23" y2="190.27"/></g><g id="COM"><line class="cls-15" x1="700.39" y1="498" x2="911.99" y2="498"/><rect class="cls-9" x="837.29" y="375.63" width="54.3" height="121.8"/><rect class="cls-9" x="835.85" y="372.27" width="57.38" height="3.44"/><rect class="cls-8" x="844.23" y="384.62" width="18.59" height="1.25"/><rect class="cls-8" x="844.23" y="393.7" width="18.59" height="1.25"/><rect class="cls-8" x="844.23" y="402.77" width="18.59" height="1.25"/><rect class="cls-8" x="844.23" y="411.85" width="18.59" height="1.25"/><rect class="cls-8" x="844.23" y="420.92" width="18.59" height="1.25"/><rect class="cls-8" x="844.23" y="430" width="18.59" height="1.25"/><rect class="cls-8" x="844.23" y="439.07" width="18.59" height="1.25"/><rect class="cls-8" x="844.23" y="457.22" width="18.59" height="1.25"/><rect class="cls-8" x="844.23" y="448.15" width="18.59" height="1.25"/><rect class="cls-8" x="844.23" y="466.29" width="18.59" height="1.25"/><rect class="cls-8" x="844.23" y="475.37" width="18.59" height="1.25"/><rect class="cls-8" x="844.18" y="484.44" width="18.59" height="1.25"/><rect class="cls-8" x="866.69" y="384.69" width="18.59" height="1.25"/><rect class="cls-8" x="866.69" y="393.76" width="18.59" height="1.25"/><rect class="cls-8" x="866.69" y="402.84" width="18.59" height="1.25"/><rect class="cls-8" x="866.69" y="411.91" width="18.59" height="1.25"/><rect class="cls-8" x="866.69" y="420.99" width="18.59" height="1.25"/><rect class="cls-8" x="866.69" y="430.06" width="18.59" height="1.25"/><rect class="cls-8" x="866.69" y="439.13" width="18.59" height="1.25"/><rect class="cls-8" x="866.69" y="457.28" width="18.59" height="1.25"/><rect class="cls-8" x="866.69" y="448.21" width="18.59" height="1.25"/><rect class="cls-8" x="866.69" y="466.36" width="18.59" height="1.25"/><rect class="cls-8" x="866.69" y="475.43" width="18.59" height="1.25"/><rect class="cls-8" x="866.63" y="484.51" width="18.59" height="1.25"/><rect class="cls-7" x="784.47" y="349.72" width="47.76" height="147.67"/><line class="cls-16" x1="808.98" y1="341.88" x2="808.98" y2="312.37"/><ellipse class="cls-7" cx="808.87" cy="335.25" rx="5.03" ry="5.59"/><rect class="cls-7" x="794.36" y="335.25" width="29.24" height="16.33"/><text class="cls-17" transform="translate(793.27 477.14) rotate(90)">L</text><line class="cls-18" x1="801.44" y1="360.38" x2="801.44" y2="488.26"/><line class="cls-18" x1="808.98" y1="360.38" x2="808.98" y2="488.26"/><line class="cls-18" x1="816.52" y1="360.38" x2="816.52" y2="488.26"/><line class="cls-18" x1="824.06" y1="360.38" x2="824.06" y2="488.26"/><rect class="cls-10" x="724.57" y="380.27" width="56.66" height="117.38"/><rect class="cls-8" x="728.72" y="384.84" width="48.37" height="100.2"/><polygon class="cls-9" points="746.38 423.06 753.72 411.87 762.53 426.26 771.34 431.06 766.94 442.25 772.81 450.25 764 451.84 759.59 463.04 747.85 456.64 737.57 461.44 739.04 448.65 731.7 442.25 736.1 434.26 730.23 419.87 746.38 423.06"/><polygon class="cls-19" points="746.98 426.11 752.65 417.46 759.46 428.58 766.28 432.29 762.87 440.95 767.41 447.13 760.6 448.36 757.19 457.02 748.11 452.07 740.16 455.78 741.3 445.89 735.62 440.95 739.03 434.76 734.49 423.64 746.98 426.11"/><polygon class="cls-9" points="763.26 417.89 764.65 413.38 772.94 410.37 767.41 414.88 763.26 417.89"/><polygon class="cls-9" points="741.15 414.88 738.39 405.85 742.54 410.37 741.15 414.88"/><polygon class="cls-9" points="768.79 460.03 771.56 470.56 767.41 467.55 768.79 466.05 768.79 460.03"/><polygon class="cls-9" points="743.92 466.05 746.68 472.07 746.68 466.05 743.92 461.53 743.92 466.05"/><polygon class="cls-9" points="731.61 455.51 734.25 449.49 734.25 454.01 731.61 455.51"/></g><g id="MMI"><rect class="cls-7" x="435.62" y="351.9" width="123.45" height="73.86"/><rect class="cls-7" x="431.74" y="417.47" width="130.24" height="8.39"/><rect class="cls-7" x="472.61" y="343.02" width="50.26" height="14.02"/><polygon class="cls-7" points="472.61 343.02 497.3 331.27 522.87 343.02 472.61 343.02"/><polygon class="cls-9" points="539.84 352 559.06 352.05 559.06 395.33 549.1 395.37 549.1 363.11 539.88 362.87 539.84 352"/><polygon class="cls-9" points="431.74 425.86 431.68 417.46 435.57 417.47 435.57 392.92 454.43 392.87 454.43 412.29 460.45 412.29 460.49 425.82 431.74 425.86"/><ellipse class="cls-8" cx="497.44" cy="349.45" rx="7.04" ry="6.82"/><rect class="cls-8" x="446.99" y="366.49" width="5.6" height="12.5"/><rect class="cls-8" x="460.49" y="366.49" width="5.6" height="12.5"/><rect class="cls-8" x="473.99" y="366.49" width="5.6" height="12.5"/><rect class="cls-8" x="446.99" y="388.09" width="5.6" height="12.5"/><rect class="cls-8" x="460.49" y="388.09" width="5.6" height="12.5"/><rect class="cls-8" x="473.99" y="388.09" width="5.6" height="12.5"/><rect class="cls-8" x="514.12" y="366.49" width="5.6" height="12.5"/><rect class="cls-8" x="527.62" y="366.49" width="5.6" height="12.5"/><rect class="cls-8" x="541.12" y="366.49" width="5.6" height="12.5"/><rect class="cls-8" x="514.12" y="388.09" width="5.6" height="12.5"/><rect class="cls-8" x="527.62" y="388.09" width="5.6" height="12.5"/><rect class="cls-8" x="541.12" y="388.09" width="5.6" height="12.5"/><path class="cls-8" d="M505.58,425.86H489.31v-19.1a8.56,8.56,0,0,1,16.27,0Z"/><polyline class="cls-20" points="497.44 345.85 497.44 348.88 499.79 351.91"/><line class="cls-14" x1="414.75" y1="425.99" x2="578.96" y2="425.99"/><rect class="cls-9" x="489.73" y="394.77" width="16" height="3"/></g><g id="Dev"><rect class="cls-10" x="108.52" y="254.37" width="71.67" height="151.47"/><line class="cls-21" x1="120.98" y1="256.47" x2="120.98" y2="404.64"/><line class="cls-21" x1="136.06" y1="256.15" x2="136.06" y2="404.32"/><line class="cls-21" x1="151.33" y1="256.15" x2="151.33" y2="404.32"/><line class="cls-21" x1="166.6" y1="256.15" x2="166.6" y2="404.32"/><line class="cls-21" x1="110.6" y1="270.9" x2="177.08" y2="270.9"/><line class="cls-21" x1="110.6" y1="287.15" x2="177.08" y2="287.15"/><line class="cls-21" x1="110.6" y1="305.14" x2="177.08" y2="305.14"/><line class="cls-21" x1="110.6" y1="322.14" x2="177.08" y2="322.14"/><line class="cls-21" x1="110.6" y1="338.14" x2="177.08" y2="338.14"/><line class="cls-21" x1="110.6" y1="354.14" x2="177.08" y2="354.14"/><line class="cls-21" x1="110.6" y1="370.14" x2="177.08" y2="370.14"/><line class="cls-21" x1="110.6" y1="386.14" x2="177.08" y2="386.14"/><rect class="cls-8" x="186.95" y="225.31" width="78.43" height="180.91"/><line class="cls-22" x1="198.24" y1="238.75" x2="198.24" y2="384.22"/><line class="cls-22" x1="208.84" y1="238.75" x2="208.84" y2="384.22"/><line class="cls-22" x1="220.54" y1="238.75" x2="220.54" y2="384.22"/><line class="cls-22" x1="231.5" y1="238.75" x2="231.5" y2="384.22"/><line class="cls-22" x1="242.77" y1="238.75" x2="242.77" y2="384.22"/><line class="cls-22" x1="253.5" y1="238.75" x2="253.5" y2="384.22"/><rect class="cls-23" x="274.26" y="272.44" width="31.98" height="5"/><path class="cls-23" d="M302.45,291.43H278.79a4.77,4.77,0,0,1-4.39-3l-4.55-11h41.71l-4.75,11A4.75,4.75,0,0,1,302.45,291.43Z"/><polyline class="cls-24" points="307.81 285.1 311.05 291.56 311.05 303.19"/><polyline class="cls-24" points="273.66 285.16 270.45 291.45 270.45 303.19"/><polyline class="cls-25" points="260.61 287.43 260.61 276.94 319.73 276.94 319.73 287.43"/><line class="cls-24" x1="256.27" y1="274.71" x2="266.26" y2="274.71"/><line class="cls-24" x1="315.24" y1="274.71" x2="325.23" y2="274.71"/><path class="cls-23" d="M259.37,273.16a1.92,1.92,0,0,1,3.83,0"/><path class="cls-23" d="M318.24,273.12a1.92,1.92,0,1,1,3.83,0"/><path class="cls-9" d="M154.5,228.55c.1-.41,1.51-6.45-2.71-10.82a11.52,11.52,0,0,0-16.22,0c-4.18,4.38-2.67,10.45-2.57,10.82l10.68,18.93Z"/><circle class="cls-8" cx="143.68" cy="225.84" r="4.06"/><line class="cls-14" x1="34.15" y1="405.83" x2="300.54" y2="405.83"/><line class="cls-26" x1="74.41" y1="340.43" x2="74.41" y2="347.8"/><path class="cls-7" d="M77.83,345H71.08a5,5,0,0,1-5-5v-3.5a8.37,8.37,0,0,1,8.29-8.45h0a8.37,8.37,0,0,1,8.28,8.45v3.5A4.91,4.91,0,0,1,77.83,345Z"/><path class="cls-26" d="M83.78,351.1c1.18,1.9,2.73,4.55,4.36,7.84,3,6.06,3.55,8.79,4.71,8.84,1.31.05,3.1-3.33,5.45-16.68"/><path class="cls-26" d="M65.5,352.7a19.13,19.13,0,0,0-4,6.91c-1.41,4.36-.56,7.55-.31,13.85a82.74,82.74,0,0,1-.37,11.82"/><line class="cls-26" x1="68.88" y1="376.34" x2="68.88" y2="405.8"/><line class="cls-26" x1="80.85" y1="376.34" x2="80.85" y2="405.8"/><path class="cls-7" d="M79.12,378.18H70.61a7.26,7.26,0,0,1-7.25-7.25V355.05a7.26,7.26,0,0,1,7.25-7.25h8.51a7.26,7.26,0,0,1,7.26,7.25v15.88A7.26,7.26,0,0,1,79.12,378.18Z"/><path class="cls-7" d="M79,402.12h3.46a12.85,12.85,0,0,0,3.18.95c2.24.37,3.44-.06,4.29.73a2.86,2.86,0,0,1,.68,2.39L79,405.73v-3.61Z"/><path class="cls-7" d="M70.72,402.12H67.26a12.58,12.58,0,0,1-3.18.95c-2.24.37-3.43-.06-4.28.73a2.86,2.86,0,0,0-.69,2.39l11.61-.46v-3.61Z"/><circle cx="71.39" cy="336.6" r="1.16"/><circle cx="78.69" cy="336.6" r="1.16"/><path class="cls-16" d="M96.53,344.28c-.54,3,.83,5.62,2.39,5.85s3.37-2,3.31-5.09"/><path class="cls-16" d="M63.35,389.75c.47-3-1-5.58-2.52-5.77s-3.32,2.1-3.2,5.17"/><circle class="cls-27" cx="67.95" cy="351.3" r="1.16"/><circle class="cls-27" cx="71.39" cy="351.3" r="1.16"/></g><g id="Design"><rect class="cls-10" x="377.9" y="523.69" width="79.72" height="175.67"/><rect class="cls-9" x="375.23" y="519.27" width="85.05" height="4.42"/><rect class="cls-28" x="387.9" y="534.46" width="22.68" height="50.27"/><rect class="cls-28" x="424.93" y="534.74" width="22.68" height="50.27"/><rect class="cls-28" x="388.07" y="599.78" width="22.68" height="50.27"/><rect class="cls-28" x="425.09" y="599.51" width="22.68" height="50.27"/><rect class="cls-7" x="406.58" y="664.28" width="22.35" height="35.36"/><line class="cls-29" x1="399.24" y1="599.65" x2="399.24" y2="650.06"/><line class="cls-29" x1="399.57" y1="534.27" x2="399.57" y2="584.67"/><line class="cls-29" x1="436.59" y1="534.54" x2="436.59" y2="584.95"/><line class="cls-29" x1="436.59" y1="599.45" x2="436.59" y2="649.86"/><line class="cls-29" x1="387.9" y1="559.87" x2="410.59" y2="559.87"/><line class="cls-29" x1="424.93" y1="559.87" x2="447.61" y2="559.87"/><line class="cls-29" x1="388.24" y1="625.06" x2="410.92" y2="625.06"/><line class="cls-29" x1="425.26" y1="625.06" x2="447.94" y2="625.06"/><rect class="cls-9" x="387.9" y="581.14" width="22.68" height="3.59"/><rect class="cls-9" x="424.93" y="581.42" width="22.68" height="3.59"/><rect class="cls-9" x="387.9" y="646.33" width="22.68" height="3.59"/><rect class="cls-9" x="424.93" y="646.33" width="22.68" height="3.59"/><rect class="cls-30" x="409.08" y="665.8" width="17.34" height="14.36"/><rect class="cls-30" x="409.25" y="682.79" width="17.34" height="14.36"/><path class="cls-8" d="M543,700.24H471.2V565.18a36.65,36.65,0,0,1,71.76,0Z"/><rect class="cls-31" x="482" y="563.43" width="49.88" height="22.46"/><rect class="cls-31" x="482" y="596.1" width="49.88" height="22.46"/><line class="cls-32" x1="482.28" y1="572.36" x2="532.17" y2="572.36"/><line class="cls-32" x1="497.58" y1="563.75" x2="497.58" y2="586.21"/><line class="cls-32" x1="517.38" y1="563.75" x2="517.38" y2="586.21"/><line class="cls-32" x1="481.99" y1="604.73" x2="531.87" y2="604.73"/><line class="cls-32" x1="497.29" y1="596.13" x2="497.29" y2="618.59"/><line class="cls-32" x1="517.09" y1="596.13" x2="517.09" y2="618.59"/><rect class="cls-31" x="482.28" y="628.8" width="49.88" height="22.46"/><line class="cls-32" x1="482.28" y1="637.43" x2="532.16" y2="637.43"/><line class="cls-32" x1="497.58" y1="628.83" x2="497.58" y2="651.29"/><line class="cls-32" x1="517.38" y1="628.83" x2="517.38" y2="651.29"/><path class="cls-9" d="M518,700.64H496.47V664.8c1.42-3.6,5.58-6.12,10.3-6.26,5-.16,9.68,2.41,11.21,6.26Z"/><path class="cls-33" d="M516.13,698.78H498.32v-33a9.27,9.27,0,0,1,8.53-5.78c4.17-.14,8,2.23,9.28,5.78Z"/><rect class="cls-10" x="482.87" y="676.03" width="10.21" height="5.54"/><rect class="cls-8" x="280.03" y="554.28" width="83.06" height="145.36"/><rect class="cls-7" x="342.33" y="580.37" width="13.04" height="24.23"/><rect class="cls-9" x="290.95" y="624.03" width="13.04" height="24.23"/><polygon class="cls-9" points="271.51 585.43 271.51 614.98 309.58 614.98 333.28 628.02 363.09 628.02 363.09 597.14 333.28 597.14 312.51 585.43 271.51 585.43"/><polygon class="cls-7" points="371.61 628.02 371.61 657.57 336.2 657.57 309.85 671.15 280.03 671.15 280.03 640.27 309.85 640.27 333.28 628.02 371.61 628.02"/><rect class="cls-9" x="338.87" y="667.69" width="8.25" height="31.68"/><rect class="cls-7" x="347.12" y="667.69" width="8.25" height="31.68"/><line class="cls-14" x1="257.23" y1="699.77" x2="573.23" y2="700.77"/></g></g></svg>