<svg xmlns="http://www.w3.org/2000/svg" viewBox="0 0 1920 952"><defs><style>.b598da8a-843c-4640-b3d7-aed2e4a08979{fill:#ace2dd;}.bd705444-ad70-4ca9-abbe-059e614ce74c{fill:#9e9e9e;}.a2640b78-f6f1-4fe5-aed4-41ea93f288a8{fill:#f7f7f7;}.fb329bb4-3954-4b28-90da-d5ebf741d152{fill:#92d2f4;}.b5a835e9-3751-41e2-9e6b-8fb628c71179,.b7dcb13d-0b34-4462-81b7-9910a73d5de1,.b9e519ef-b171-4b81-832e-aa0b539c8506{fill:none;}.b7dcb13d-0b34-4462-81b7-9910a73d5de1,.b9e519ef-b171-4b81-832e-aa0b539c8506{stroke:#636363;}.b5a835e9-3751-41e2-9e6b-8fb628c71179,.b7dcb13d-0b34-4462-81b7-9910a73d5de1{stroke-miterlimit:10;}.b9e519ef-b171-4b81-832e-aa0b539c8506{stroke-miterlimit:10;}.f1839612-eebd-412a-92d9-77d56069068f{fill:#ffd985;}.b5a835e9-3751-41e2-9e6b-8fb628c71179{stroke:#fff;stroke-width:2px;}</style></defs><title>fond_apropos</title><g id="b81c5a52-d51d-44ea-878b-d41186ef54b1" data-name="Calque 2"><g id="a51144ed-b80d-4e00-9067-0b7f4830ec59" data-name="Calque 1"><rect class="b598da8a-843c-4640-b3d7-aed2e4a08979" y="826" width="1920" height="126"/></g><g id="b9b6e43e-fc33-4655-a925-a1b5c50baadb" data-name="Calque 2"><g id="e817ee79-ec98-4ed1-b0d7-ab7bc8cd3e9a" data-name="Calque 2"><path class="bd705444-ad70-4ca9-abbe-059e614ce74c" d="M1489.66,352.91c5.63-1.64,15.46-3.5,26.07,0,20.86,6.91,28.86,29.53,31.51,37,6.22,17.54.78,22.23,4.93,49.24,3,19.8,6.36,19.84,11.82,43.33,8.53,36.69,1.64,41.64,8.87,66,10.8,36.39,31.22,42.21,27.57,55.14-4.85,17.21-44.68,19.84-145.76,20.69-144.59,1.21-177.77-3.24-185.16-22.65-3.67-9.64,2.68-13.36,11.82-42.33,18.51-58.75,13.43-110,10.82-133.93a337.58,337.58,0,0,0-17.73-76.82q42.33.51,84.7,1Q1424.43,351.24,1489.66,352.91Z"/><path class="a2640b78-f6f1-4fe5-aed4-41ea93f288a8" d="M1160.64,72.81a65.89,65.89,0,0,1,20.44-59.48A61.57,61.57,0,0,1,1229.8.89a165.81,165.81,0,0,1,58.55,49.47v4.3L1313.24,62a97.08,97.08,0,0,1,26-2.81A95.74,95.74,0,0,1,1359.81,62a50.35,50.35,0,0,1,27.81,22.11A141.55,141.55,0,0,1,1450,153.91a408.72,408.72,0,0,1,34.72,94.36c11.41,14.89,15,28,16.29,36.11,1,6.33-.27,3.89.72,22.35s2.57,29.51-2.1,37.26a30.05,30.05,0,0,1-8.31,8.87c-6,4.25-11.84,5.39-18.3,5.9a107.92,107.92,0,0,1-47.48-6.91,133.39,133.39,0,0,1-53.94,5.53l-38-7.08-32-1.23c10.82,6.16,25.49,16.67,35.91,34.19,5.7,9.55,3.57,10.2,12.49,28.93,13,27.33,19.55,41,30.21,47,2.92,1.64,12.81,6.69,18.17,15.44a16.77,16.77,0,0,1,2.73,8.22,17.15,17.15,0,0,1-3,10.22,103.35,103.35,0,0,0-23.1,22.35c-11.7,15.71-10.93,24.6-23,33.91-4.66,3.57-10.9,6-23.39,11-10.22,4-19,6.84-25.45,8.71l-5.66-2.17c-3-4.93-6.33-12.37-4.8-20.44,1.86-9.66,9.25-12.44,19.19-24.16,7.66-9,18-21.32,17.69-35.77-.25-9.49-5.47-17.18-16-32.5a188.48,188.48,0,0,0-15-19,221.7,221.7,0,0,1-35.5-28.44,218.71,218.71,0,0,1-25.42-30.09,114.84,114.84,0,0,1-15.66-10.7,118,118,0,0,1-20.59-21.51q-7.8-14.89-15.61-29.77l-17.28,1q-14.28-2.17-28.54-4.32-18.62-9.65-37.25-19.26l-14.3-20.37c-1.86-15.16-1.65-23.05.56-23.69,1.76-.48,4.81,3.55,9.13,12.18,1.48,2.15,12.09,17.42,17.26,15.27,2.34-1,3.21-5.38,3.31-6,1.11-5.68-2.37-9.41-.65-11.29,1.11-1.23,4-1.14,5.94,0,5.51,3.09,1.23,12.42,7.35,18.6,3,3,5,1.79,10,6a30,30,0,0,1,6.65,8l20.61.43q21.29-12.61,42.58-25.2l11.22-8.61a349.06,349.06,0,0,1-28.86-40.52,348.51,348.51,0,0,1-19.79-37.43,102.66,102.66,0,0,1,30.5-62.81l40.23,20.35c.44,2.65.9,5.31,1.33,7.95,1.67,1.52,4,3.72,6.62,6.47,4,4.16,4.43,5.13,4.62,6.14.72,4.11-2.9,9.14-6.77,9.84-2.12.38-3-.8-6.76-1.55a23.57,23.57,0,0,0-8.32-.12,52.14,52.14,0,0,1-8.07,1.59,52.82,52.82,0,0,1-10.49.17c-2.65,2.23-5.31,4.43-7.95,6.65l49.08,45.12a42.38,42.38,0,0,1-1.16-15.35,41.85,41.85,0,0,1,4.69-15.15,56.12,56.12,0,0,1,7.11-28.47,55.49,55.49,0,0,1,15-17.08l-25.2-22.55-20,12.33-36.22-17.21-7.35-1.89L1187.77,94l-8.07-1.26-6.93-12.9Z"/><path class="fb329bb4-3954-4b28-90da-d5ebf741d152" d="M1315.06,270.5c5.39-11.64,6-25.3,12.93-37.91,13.12,8.67,28.85,24.62,36.66,36A331.79,331.79,0,0,1,1315.06,270.5Z"/><rect class="a2640b78-f6f1-4fe5-aed4-41ea93f288a8" x="1096.54" y="223.81" width="13.03" height="76.83" transform="translate(30.36 629.39) rotate(-32.27)"/></g><g id="a1303550-a8d6-4bdd-9e8a-f640432542e1" data-name="Calque 3"><path class="b7dcb13d-0b34-4462-81b7-9910a73d5de1" d="M1177.46,64.28c2.27-2.59,6.17-6.17,11.34-6.58,7.75-.6,10.82,6.58,16.45,5.85,9.07-1.18,7.16-20.69,19.38-27,9.36-4.86,23.25,0,31.08,5.48,10.25,7.23,13.22,17.81,21.19,17.55a11.92,11.92,0,0,0,7.3-3.29"/><polyline class="b7dcb13d-0b34-4462-81b7-9910a73d5de1" points="1215.81 130.97 1235.11 139.36 1235.11 156.58"/><path class="b7dcb13d-0b34-4462-81b7-9910a73d5de1" d="M1354,78.9a210.66,210.66,0,0,1,73.9,59.61c35.06,44.93,41.92,91.88,43.66,111.67"/><ellipse class="b9e519ef-b171-4b81-832e-aa0b539c8506" cx="1193.21" cy="93.94" rx="7.03" ry="8.39" transform="translate(112.89 609.2) rotate(-30)"/><line class="b7dcb13d-0b34-4462-81b7-9910a73d5de1" x1="1083.27" y1="232.59" x2="1103.01" y2="262.24"/><path class="b7dcb13d-0b34-4462-81b7-9910a73d5de1" d="M1367,232.93l15.42,35.42a51.89,51.89,0,0,1,39.17,11.29"/><path class="b7dcb13d-0b34-4462-81b7-9910a73d5de1" d="M1238,248.76a86.09,86.09,0,0,1,33.86-15.86c-.92-15.22.36-36.92,11.57-58.67a103.54,103.54,0,0,1,5.71-9.69c-.44-1.91-3.39-16.07,6-27.33A30.35,30.35,0,0,1,1309,127.9"/><path class="b7dcb13d-0b34-4462-81b7-9910a73d5de1" d="M1199.84,306.9a263.5,263.5,0,0,0,40.74-8.94,262.14,262.14,0,0,0,35.55-13.73"/><path class="b7dcb13d-0b34-4462-81b7-9910a73d5de1" d="M1274.59,342A92.62,92.62,0,0,1,1315.26,365"/><path class="b7dcb13d-0b34-4462-81b7-9910a73d5de1" d="M1244,372.92q21.66,21.51,43.81,43.16Q1309.2,437,1330.5,457.5"/></g><path class="b7dcb13d-0b34-4462-81b7-9910a73d5de1" d="M1207.44,177.11a117.75,117.75,0,0,0,39.81,39.81"/><rect class="bd705444-ad70-4ca9-abbe-059e614ce74c" x="1151.24" y="636.1" width="519.88" height="187.34"/><rect class="bd705444-ad70-4ca9-abbe-059e614ce74c" x="1184.02" y="575.22" width="454.31" height="81.86"/><rect class="f1839612-eebd-412a-92d9-77d56069068f" x="1220.57" y="645.47" width="383.97" height="138.37"/></g><g id="bd72101c-eda5-4cdc-bb01-860427e24f2f" data-name="Calque 3"><polyline class="b5a835e9-3751-41e2-9e6b-8fb628c71179" points="1129.5 814.5 1129.5 618.11 1169.5 618.11 1170 583"/><line class="b5a835e9-3751-41e2-9e6b-8fb628c71179" x1="960" y1="826" x2="1844.57" y2="826"/><line class="b5a835e9-3751-41e2-9e6b-8fb628c71179" x1="770" y1="847" x2="1340" y2="847"/><line class="b5a835e9-3751-41e2-9e6b-8fb628c71179" x1="1305" y1="871" x2="1733" y2="871"/></g></g></svg>