<svg xmlns="http://www.w3.org/2000/svg" width="216.974" height="129.729" viewBox="0 0 216.974 129.729">
  <g id="Logo_WWI_1_" data-name="Logo WWI (1)" transform="translate(-61.736 -70.911)">
    <rect id="Rectangle_2141" data-name="Rectangle 2141" width="19.84" height="99.21" rx="9.92" transform="matrix(0.94, -0.34, 0.34, 0.94, 61.736, 77.886)" fill="#f8a815"/>
    <rect id="Rectangle_2142" data-name="Rectangle 2142" width="19.84" height="99.21" rx="9.92" transform="matrix(-0.94, -0.342, 0.342, -0.94, 107.499, 170.924)" fill="#f8a815"/>
    <rect id="Rectangle_2143" data-name="Rectangle 2143" width="19.84" height="99.21" rx="9.92" transform="matrix(-0.94, -0.342, 0.342, -0.94, 161.495, 170.925)" fill="#f7a817"/>
    <rect id="Rectangle_2144" data-name="Rectangle 2144" width="19.84" height="99.21" rx="9.92" transform="matrix(0.94, -0.342, 0.342, 0.94, 115.849, 77.707)" fill="#fbbb1a"/>
    <rect id="Rectangle_2145" data-name="Rectangle 2145" width="19.84" height="99.21" rx="9.92" transform="matrix(0.94, -0.342, 0.342, 0.94, 169.852, 77.708)" fill="#fbbb1a"/>
    <rect id="Rectangle_2146" data-name="Rectangle 2146" width="19.84" height="99.21" rx="9.92" transform="matrix(-0.94, -0.342, 0.342, -0.94, 216.502, 170.924)" fill="#fbbb1a"/>
    <rect id="Rectangle_2147" data-name="Rectangle 2147" width="20" height="94.43" rx="9.92" transform="translate(258.71 73.8)" fill="#f7a819"/>
    <text id="WEB_WORK_ISLANDS" data-name="WEB WORK ISLANDS" transform="translate(82.44 195.64)" fill="#515151" font-size="19" font-family="SegoeUI, Segoe UI"><tspan x="0" y="0">WEB WORK ISLAN</tspan><tspan y="0" letter-spacing="-0.04em">D</tspan><tspan y="0">S</tspan></text>
  </g>
</svg>
