<svg xmlns="http://www.w3.org/2000/svg" width="265.556" height="54.912" viewBox="0 0 265.556 54.912">
  <g id="vague4" transform="translate(-1526.413 -754.077)">
    <path id="Tracé_4" data-name="Tracé 4" d="M1460.416,762.294c4.81-3.719,12.017-7.951,20.255-7.107,7.065.723,8.355,4.513,18.478,7.462,3.662,1.067,12.947,3.772,23.452,1.421,9.257-2.072,10.614-6.09,17.768-5.685,6.273.354,8.111,3.607,14.569,5.685,5.059,1.628,12.853,2.5,24.163-1.776" transform="translate(126)" fill="none" stroke="#fff" stroke-miterlimit="10" stroke-width="2"/>
    <path id="Tracé_5" data-name="Tracé 5" d="M1401.025,808.872c4.81-3.719,12.017-7.951,20.255-7.107,7.066.723,8.356,4.513,18.478,7.462,3.662,1.067,12.947,3.772,23.453,1.421,9.257-2.072,10.613-6.09,17.767-5.685,6.274.354,8.111,3.608,14.569,5.685,5.06,1.628,12.853,2.5,24.163-1.776" transform="translate(126 -4)" fill="none" stroke="#fff" stroke-miterlimit="10" stroke-width="2"/>
    <path id="Tracé_6" data-name="Tracé 6" d="M1562.931,793.811c4.81-3.719,12.017-7.951,20.255-7.107,7.065.723,8.356,4.513,18.478,7.462,3.662,1.067,12.947,3.772,23.452,1.421,9.258-2.072,10.614-6.09,17.768-5.685,6.274.354,8.111,3.607,14.569,5.685,5.06,1.628,12.853,2.5,24.163-1.776" transform="translate(110)" fill="none" stroke="#fff" stroke-miterlimit="10" stroke-width="2"/>
  </g>
</svg>
