<svg xmlns="http://www.w3.org/2000/svg" width="290.318" height="60.69" viewBox="0 0 290.318 60.69">
  <g id="vague1" transform="translate(-142.032 -242.076)">
    <path id="Tracé_1" data-name="Tracé 1" d="M203.89,250.519c4.96-3.835,12.392-8.2,20.887-7.329,7.286.746,8.617,4.654,19.055,7.695,3.777,1.1,13.352,3.891,24.185,1.466,9.546-2.137,10.945-6.28,18.322-5.863,6.47.366,8.365,3.72,15.024,5.863,5.218,1.679,13.254,2.58,24.918-1.832" fill="none" stroke="#fff" stroke-miterlimit="10" stroke-width="2"/>
    <path id="Tracé_2" data-name="Tracé 2" d="M142.644,298.551c4.96-3.834,12.392-8.2,20.887-7.329,7.287.747,8.617,4.654,19.055,7.7,3.777,1.1,13.352,3.89,24.185,1.466,9.547-2.137,10.945-6.281,18.322-5.864,6.47.366,8.365,3.721,15.025,5.864,5.217,1.678,13.254,2.579,24.918-1.833" fill="none" stroke="#fff" stroke-miterlimit="10" stroke-width="2"/>
    <path id="Tracé_3" data-name="Tracé 3" d="M309.606,283.02c4.96-3.835,12.392-8.2,20.887-7.329,7.286.747,8.617,4.654,19.055,7.695,3.777,1.1,13.352,3.891,24.185,1.466,9.546-2.136,10.945-6.28,18.322-5.863,6.47.366,8.365,3.721,15.024,5.863,5.218,1.679,13.255,2.58,24.918-1.832" fill="none" stroke="#fff" stroke-miterlimit="10" stroke-width="2"/>
  </g>
</svg>
