<svg xmlns="http://www.w3.org/2000/svg" width="238.042" height="43.913" viewBox="0 0 238.042 43.913">
  <g id="vague2" transform="translate(-217.413 -822.336)">
    <path id="Tracé_7" data-name="Tracé 7" d="M336.416,830.552c4.81-3.718,12.017-7.95,20.255-7.106,7.065.723,8.355,4.513,18.478,7.462,3.662,1.067,12.947,3.772,23.452,1.421,9.257-2.072,10.614-6.09,17.768-5.685,6.273.354,8.111,3.607,14.569,5.685,5.059,1.628,12.853,2.5,24.163-1.777" fill="none" stroke="#fff" stroke-miterlimit="10" stroke-width="2"/>
    <path id="Tracé_8" data-name="Tracé 8" d="M218.025,862.131c4.81-3.719,12.017-7.951,20.255-7.107,7.066.723,8.356,4.513,18.478,7.462,3.662,1.067,12.947,3.772,23.453,1.421,9.257-2.072,10.613-6.09,17.767-5.685,6.274.354,8.111,3.607,14.569,5.685,5.06,1.628,12.853,2.5,24.163-1.776" fill="none" stroke="#fff" stroke-miterlimit="10" stroke-width="2"/>
  </g>
</svg>
