<svg xmlns="http://www.w3.org/2000/svg" width="238.042" height="43.913" viewBox="0 0 238.042 43.913">
  <g id="vague3" transform="translate(-1481.171 -241.836)">
    <path id="Tracé_9" data-name="Tracé 9" d="M1600.173,250.052c4.811-3.718,12.018-7.95,20.255-7.106,7.066.723,8.356,4.513,18.478,7.462,3.663,1.067,12.948,3.772,23.453,1.421,9.257-2.072,10.613-6.09,17.767-5.685,6.274.354,8.112,3.607,14.569,5.685,5.06,1.628,12.853,2.5,24.164-1.777" fill="none" stroke="#fff" stroke-miterlimit="10" stroke-width="2"/>
    <path id="Tracé_10" data-name="Tracé 10" d="M1481.783,281.631c4.81-3.719,12.017-7.951,20.254-7.107,7.066.723,8.356,4.513,18.478,7.462,3.663,1.067,12.948,3.772,23.453,1.421,9.257-2.072,10.613-6.09,17.767-5.685,6.274.354,8.112,3.607,14.57,5.685,5.059,1.628,12.853,2.5,24.163-1.776" fill="none" stroke="#fff" stroke-miterlimit="10" stroke-width="2"/>
  </g>
</svg>
