<svg xmlns="http://www.w3.org/2000/svg" viewBox="0 0 312.09 359.36"><defs><style>.cls-1{fill:#fcbdb6;}.cls-2,.cls-6,.cls-7{fill:none;stroke-miterlimit:10;}.cls-2{stroke:#fff;stroke-width:0.75px;}.cls-3{fill:#ffd985;}.cls-4{fill:#fff;}.cls-5{fill:#5765b2;}.cls-6{stroke:#5765b2;stroke-width:3px;}.cls-7{stroke:#efc581;stroke-width:2px;}.cls-8{fill:#a5a5a5;}.cls-9{fill:#ffd00b;}</style></defs><title>communication</title><g id="Calque_2" data-name="Calque 2"><g id="COM"><path class="cls-1" d="M.57,249.73c-5-32.76,23.66-50.23,71-112,68.48-89.34,63.07-124,103-135,40.73-11.17,88,13.53,113,45,44.54,56.16,16.93,132.69,6,163-25.9,71.8-95.07,156.81-164,148-31.19-4-57.4-26.55-80-46C23.67,290.44,4.26,273.73.57,249.73Z"/><line class="cls-2" x1="65.73" y1="200.46" x2="277.33" y2="200.46"/><rect class="cls-3" x="202.63" y="78.09" width="54.3" height="121.8"/><rect class="cls-3" x="201.19" y="74.73" width="57.38" height="3.44"/><rect class="cls-4" x="209.57" y="87.08" width="18.59" height="1.25"/><rect class="cls-4" x="209.57" y="96.16" width="18.59" height="1.25"/><rect class="cls-4" x="209.57" y="105.23" width="18.59" height="1.25"/><rect class="cls-4" x="209.57" y="114.31" width="18.59" height="1.25"/><rect class="cls-4" x="209.57" y="123.38" width="18.59" height="1.25"/><rect class="cls-4" x="209.57" y="132.46" width="18.59" height="1.25"/><rect class="cls-4" x="209.57" y="141.53" width="18.59" height="1.25"/><rect class="cls-4" x="209.57" y="159.68" width="18.59" height="1.25"/><rect class="cls-4" x="209.57" y="150.61" width="18.59" height="1.25"/><rect class="cls-4" x="209.57" y="168.76" width="18.59" height="1.25"/><rect class="cls-4" x="209.57" y="177.83" width="18.59" height="1.25"/><rect class="cls-4" x="209.52" y="186.91" width="18.59" height="1.25"/><rect class="cls-4" x="232.03" y="87.15" width="18.59" height="1.25"/><rect class="cls-4" x="232.03" y="96.22" width="18.59" height="1.25"/><rect class="cls-4" x="232.03" y="105.3" width="18.59" height="1.25"/><rect class="cls-4" x="232.03" y="114.37" width="18.59" height="1.25"/><rect class="cls-4" x="232.03" y="123.45" width="18.59" height="1.25"/><rect class="cls-4" x="232.03" y="132.52" width="18.59" height="1.25"/><rect class="cls-4" x="232.03" y="141.6" width="18.59" height="1.25"/><rect class="cls-4" x="232.03" y="159.75" width="18.59" height="1.25"/><rect class="cls-4" x="232.03" y="150.67" width="18.59" height="1.25"/><rect class="cls-4" x="232.03" y="168.82" width="18.59" height="1.25"/><rect class="cls-4" x="232.03" y="177.89" width="18.59" height="1.25"/><rect class="cls-4" x="231.97" y="186.97" width="18.59" height="1.25"/><rect class="cls-5" x="149.81" y="52.18" width="47.76" height="147.67"/><line class="cls-6" x1="174.32" y1="44.34" x2="174.32" y2="14.83"/><ellipse class="cls-5" cx="174.21" cy="37.71" rx="5.03" ry="5.59"/><rect class="cls-5" x="159.7" y="37.71" width="29.24" height="16.33"/><line class="cls-7" x1="158.61" y1="62.84" x2="158.61" y2="190.72"/><line class="cls-7" x1="166.78" y1="62.84" x2="166.78" y2="190.72"/><line class="cls-7" x1="174.32" y1="62.84" x2="174.32" y2="190.72"/><line class="cls-7" x1="181.86" y1="62.84" x2="181.86" y2="190.72"/><line class="cls-7" x1="189.4" y1="62.84" x2="189.4" y2="190.72"/><rect class="cls-8" x="89.91" y="82.73" width="56.66" height="117.38"/><rect class="cls-4" x="94.06" y="87.3" width="48.37" height="100.2"/><polygon class="cls-3" points="111.72 125.53 119.06 114.33 127.87 128.72 136.68 133.52 132.28 144.71 138.15 152.71 129.34 154.31 124.94 165.5 113.19 159.1 102.91 163.9 104.38 151.11 97.04 144.71 101.44 136.72 95.57 122.33 111.72 125.53"/><polygon class="cls-9" points="112.32 128.57 117.99 119.92 124.81 131.04 131.62 134.75 128.21 143.41 132.75 149.59 125.94 150.82 122.53 159.48 113.45 154.53 105.5 158.24 106.64 148.35 100.96 143.41 104.37 137.23 99.83 126.1 112.32 128.57"/><polygon class="cls-3" points="128.61 120.35 129.99 115.84 138.28 112.83 132.75 117.34 128.61 120.35"/><polygon class="cls-3" points="106.5 117.34 103.73 108.31 107.88 112.83 106.5 117.34"/><polygon class="cls-3" points="134.13 162.49 136.9 173.02 132.75 170.01 134.13 168.51 134.13 162.49"/><polygon class="cls-3" points="109.26 168.51 112.02 174.53 112.02 168.51 109.26 163.99 109.26 168.51"/><polygon class="cls-3" points="96.95 157.97 99.58 151.95 99.58 156.47 96.95 157.97"/></g></g></svg>